<svg width="33" height="33" viewBox="0 0 33 33" fill="none" xmlns="http://www.w3.org/2000/svg">
<rect y="1" width="32" height="30" rx="15" fill="black"/>
<path d="M18.4047 15.5592C17.8291 15.2138 17.3521 14.7368 17.0231 14.1612L12.3027 17.9112C12.3192 17.9276 12.3356 17.9605 12.3685 17.977C12.4014 18.0099 12.4179 18.0428 12.4508 18.0757C12.5166 18.1414 12.5659 18.2072 12.6317 18.273C12.6646 18.3224 12.7139 18.3553 12.7633 18.4046C12.8126 18.4539 12.8619 18.5033 12.9113 18.5691C12.9771 18.6349 13.0429 18.7007 13.1087 18.7664C13.1416 18.7993 13.158 18.8158 13.1909 18.8487C13.2238 18.8816 13.2402 18.898 13.2731 18.9309C13.3389 18.9967 13.4047 19.0625 13.4705 19.1283C13.5198 19.1776 13.5692 19.227 13.6185 19.2763C13.6679 19.3092 13.7008 19.3586 13.7501 19.4079C13.8159 19.4737 13.8817 19.523 13.9475 19.5888C13.9804 19.6217 14.0133 19.6382 14.0297 19.671C14.1119 19.7533 14.1942 19.8191 14.2929 19.8849C14.3093 19.9013 14.3093 19.9013 14.3258 19.9178C14.408 19.9835 14.4902 20.0493 14.5889 20.1151L18.1909 15.8553L18.4047 15.5592Z" fill="white"/>
<path d="M11.6283 17.0559L11.9244 16.8257L16.6119 13.1086C16.5461 12.829 16.5132 12.5329 16.5132 12.2533C16.5132 11.8914 16.5625 11.5461 16.6612 11.2171L10.4441 14.6217L10.2632 14.7204C10.4277 15.0493 10.5921 15.3783 10.773 15.6908C10.7566 15.6743 11.0527 16.25 11.6283 17.0559Z" fill="white"/>
<path d="M18.0428 22.0066L21.4474 15.9375C21.1184 16.0362 20.7566 16.0855 20.3947 16.0855C20.0822 16.0855 19.7862 16.0526 19.5066 15.9868L15.4934 20.7566C16.2829 21.2993 17.1053 21.7599 17.9934 22.1546L18.0428 22.0066Z" fill="white"/>
<path d="M32.3026 16.1184C32.3026 15.9868 32.3026 15.8553 32.3026 15.7237C32.3026 15.6579 32.3026 15.5921 32.3026 15.5263C32.3026 15.4605 32.3026 15.3947 32.3026 15.3289C32.3026 15.2632 32.3026 15.1809 32.2862 15.1151C32.2862 15.0493 32.2862 14.9836 32.2697 14.9178C32.2697 14.852 32.2533 14.8026 32.2533 14.7368C32.2533 14.671 32.2368 14.5888 32.2368 14.523C32.2368 14.4737 32.2204 14.4408 32.2204 14.3914C32.204 14.3092 32.2039 14.2105 32.1875 14.1283C32.1875 14.1118 32.1875 14.0789 32.171 14.0625C31.9901 12.6151 31.6118 11.2171 31.0362 9.86842C30.4276 8.4375 29.6217 7.10527 28.6349 5.90461C28.6184 5.88816 28.602 5.87171 28.5855 5.85526C28.5197 5.77302 28.4539 5.69079 28.3882 5.60855C28.3553 5.57565 28.3224 5.52632 28.2895 5.49343C28.2895 5.49343 28.2895 5.47697 28.273 5.47697C28.2237 5.42763 28.1743 5.36184 28.125 5.3125L28.1086 5.29605C28.0592 5.24671 28.0099 5.19737 27.9605 5.13158C27.9276 5.09869 27.8947 5.06579 27.8618 5.01645C27.7796 4.93421 27.6974 4.85198 27.6151 4.75329C27.6151 4.75329 27.5987 4.73684 27.5987 4.7204C27.5493 4.67105 27.5 4.62171 27.4507 4.57237C27.4013 4.52302 27.3684 4.49013 27.3191 4.44079C27.2862 4.40789 27.2533 4.375 27.204 4.34211C27.1382 4.29277 27.0888 4.22698 27.023 4.17764C26.9737 4.12829 26.9079 4.07895 26.8421 4.02961C26.8092 3.99671 26.7599 3.96382 26.727 3.93093C26.6447 3.86514 26.5625 3.79934 26.4967 3.73355C26.4803 3.71711 26.4638 3.70066 26.4309 3.68421C25.2303 2.69737 23.898 1.89145 22.4671 1.28289C21.2171 0.756577 19.9342 0.394739 18.602 0.19737C18.4868 0.180923 18.3882 0.164473 18.273 0.148025C18.2401 0.148025 18.2237 0.148024 18.1908 0.131577C18.1085 0.11513 18.0099 0.115133 17.9276 0.0986852C17.8783 0.0986852 17.8289 0.0822368 17.7796 0.0822368C17.7138 0.0822368 17.648 0.0657885 17.5658 0.0657885C17.5 0.0657885 17.4342 0.0493401 17.3684 0.0493401C17.3026 0.0493401 17.2533 0.0493441 17.1875 0.0328967C17.1053 0.0328967 17.0395 0.0164484 16.9572 0.0164484C16.8914 0.0164484 16.8257 0.0164474 16.7599 0C16.6941 0 16.6283 0 16.5625 0C16.4309 0 16.2993 0 16.1513 0H16.1349C16.0362 0 15.9375 0 15.8388 0C15.8059 0 15.773 0 15.7401 0C15.6414 0 15.5428 1.00362e-06 15.4276 0.0164484C15.3947 0.0164484 15.3618 0.0164484 15.3289 0.0164484C15.2303 0.0164484 15.148 0.0328967 15.0493 0.0328967C15.0164 0.0328967 14.9671 0.0328927 14.9342 0.0493401C14.852 0.0493401 14.7862 0.0657885 14.7204 0.0657885C14.6546 0.0657885 14.6053 0.0822368 14.5395 0.0822368C14.4901 0.0822368 14.4408 0.0986852 14.3914 0.0986852C14.3092 0.115133 14.227 0.11513 14.1447 0.131577C14.1118 0.131577 14.0954 0.131578 14.0625 0.148025C12.6316 0.328946 11.2335 0.707239 9.88486 1.26645C9.80263 1.29934 9.73684 1.33223 9.67105 1.36513C8.32237 1.95723 7.05592 2.73026 5.92105 3.66776C5.90461 3.68421 5.87171 3.70065 5.85526 3.7171C5.77302 3.78289 5.70724 3.84868 5.625 3.91447C5.57566 3.94737 5.54277 3.99671 5.49343 4.02961C5.44408 4.07895 5.37829 4.12829 5.32895 4.17764C5.26316 4.24343 5.19736 4.30921 5.11513 4.375C5.08223 4.40789 5.06579 4.42434 5.03289 4.45723C4.93421 4.53947 4.83553 4.63816 4.75329 4.73684C4.67106 4.83552 4.57237 4.91776 4.47369 5.01645C4.44079 5.04934 4.42434 5.08224 4.39145 5.09868C4.32566 5.16447 4.25986 5.23027 4.21052 5.29605C4.16118 5.3454 4.11184 5.39474 4.0625 5.46053C4.02961 5.50987 3.98026 5.54276 3.94737 5.59211C3.88158 5.67434 3.81579 5.74014 3.75 5.82237C3.73355 5.83882 3.71711 5.87171 3.68421 5.88816C3.60198 5.98684 3.51974 6.08552 3.4375 6.18421C2.54935 7.30263 1.82566 8.51973 1.26645 9.83552C0.740134 11.0691 0.378285 12.352 0.180917 13.6678V13.6842C0.16447 13.7829 0.148024 13.898 0.131577 13.9967C0.131577 14.0296 0.131581 14.0625 0.115134 14.0789C0.0986862 14.1612 0.0986842 14.2434 0.0822368 14.3257C0.0822368 14.375 0.0657935 14.4243 0.0657935 14.4737C0.0657935 14.5395 0.0493401 14.6053 0.0493401 14.6711C0.0493401 14.7368 0.0328967 14.8026 0.0328967 14.8849C0.0328967 14.9342 0.0328907 15 0.0164434 15.0493C0.0164434 15.1316 0 15.2138 0 15.2961C0 15.3618 0 15.4112 0 15.477C0 15.5592 0 15.625 0 15.7072C0 15.8388 0 15.9704 0 16.102C0 16.2336 0 16.3651 0 16.5132C0 16.579 0 16.6447 0 16.727C0 16.7928 0 16.8586 0 16.9243C0 17.0066 0.0164434 17.0724 0.0164434 17.1546C0.0164434 17.2204 0.0164494 17.2697 0.0328967 17.3191C0.0328967 17.3849 0.0493401 17.4507 0.0493401 17.5164C0.0493401 17.5822 0.0657935 17.648 0.0657935 17.7138C0.0657935 17.7632 0.0822368 17.8125 0.0822368 17.8618C0.0822368 17.9441 0.0986862 18.0263 0.115134 18.1085C0.115134 18.1414 0.11513 18.1579 0.131577 18.1908C0.148024 18.2895 0.16447 18.4046 0.180917 18.5033C0.180917 18.5033 0.180917 18.5033 0.180917 18.5197C0.378285 19.8355 0.740134 21.1184 1.26645 22.3684C1.875 23.7993 2.68092 25.1316 3.66776 26.3322C3.68421 26.3487 3.68421 26.3651 3.70066 26.3651C3.76645 26.4474 3.84868 26.5296 3.91447 26.6283C3.94737 26.6612 3.96381 26.6941 3.99671 26.727C4.0625 26.7928 4.11185 26.8586 4.17764 26.9243C4.21053 26.9737 4.25987 27.0066 4.30921 27.0559C4.35855 27.1053 4.40789 27.1546 4.45723 27.2204C4.52302 27.2862 4.58881 27.352 4.6546 27.4178C4.6875 27.4507 4.70395 27.4671 4.73684 27.5C4.76973 27.5329 4.78618 27.5493 4.81908 27.5822C4.88487 27.648 4.95066 27.7138 5.01645 27.7796C5.06579 27.829 5.11514 27.8783 5.16448 27.9276C5.21382 27.9605 5.24671 28.0099 5.29605 28.0592C5.36184 28.125 5.42764 28.1743 5.49343 28.2401C5.52632 28.273 5.55921 28.2895 5.57566 28.3224C5.6579 28.4046 5.74013 28.4704 5.83882 28.5362C5.85526 28.5526 5.85527 28.5526 5.87171 28.5691C7.07237 29.5559 8.4046 30.3618 9.83552 30.9704C11.1842 31.5461 12.5987 31.9243 14.0461 32.1053C14.0625 32.1053 14.0954 32.1053 14.1118 32.1053C14.2105 32.1217 14.2928 32.1217 14.3914 32.1382C14.4243 32.1382 14.4737 32.1546 14.5066 32.1546C14.5888 32.1546 14.671 32.171 14.7368 32.171C14.7862 32.171 14.852 32.1875 14.9013 32.1875C14.9671 32.1875 15.0493 32.2039 15.1151 32.2039C15.1809 32.2039 15.2467 32.204 15.2961 32.2204C15.3783 32.2204 15.477 32.2204 15.5592 32.2368C15.6085 32.2368 15.6415 32.2368 15.6908 32.2368C15.8224 32.2368 15.954 32.2368 16.102 32.2368H16.1184H16.1349C16.2664 32.2368 16.398 32.2368 16.5296 32.2368C16.5954 32.2368 16.6776 32.2368 16.7434 32.2368C16.8092 32.2368 16.875 32.2368 16.9243 32.2368C17.0066 32.2368 17.0888 32.2204 17.1546 32.2204C17.2039 32.2204 17.2697 32.2204 17.3191 32.2039C17.3849 32.2039 17.4507 32.1875 17.5164 32.1875C17.5822 32.1875 17.648 32.171 17.7138 32.171C17.7632 32.171 17.7961 32.1546 17.8454 32.1546C17.9276 32.1382 18.0263 32.1382 18.1085 32.1217C18.125 32.1217 18.1414 32.1217 18.1743 32.1217C19.6217 31.9408 21.0197 31.5625 22.3684 31.0033C23.8158 30.3947 25.148 29.5888 26.3487 28.602L26.3651 28.5855C26.4638 28.5033 26.5461 28.4375 26.6447 28.3553C26.6612 28.3388 26.6941 28.3059 26.727 28.2895C26.8092 28.2237 26.875 28.1579 26.9408 28.0921C26.9737 28.0592 27.0066 28.0263 27.0559 27.9934C27.1217 27.9441 27.171 27.8783 27.2368 27.8289C27.2697 27.7961 27.3191 27.7467 27.352 27.7138C27.4013 27.6645 27.4671 27.6151 27.5164 27.5493C27.5658 27.5 27.6151 27.4507 27.6645 27.3849C27.6974 27.3355 27.7467 27.3026 27.7961 27.2533C27.8454 27.1875 27.9112 27.1382 27.9605 27.0724C27.9934 27.0395 28.0263 27.0066 28.0592 26.9572C28.125 26.8915 28.1908 26.8092 28.2566 26.7434C28.273 26.727 28.3059 26.6941 28.3224 26.6612C28.4046 26.5789 28.4704 26.4803 28.5526 26.398C28.5526 26.3816 28.5691 26.3816 28.5691 26.3651C29.5559 25.1645 30.3783 23.8487 30.9868 22.4013C31.0033 22.352 31.0362 22.2862 31.0526 22.2368C31.5789 20.9375 31.9408 19.6053 32.1217 18.2237C32.1217 18.2072 32.1217 18.1743 32.1382 18.1579C32.1546 18.0757 32.1546 17.977 32.171 17.8947C32.171 17.8454 32.1875 17.8125 32.1875 17.7632C32.1875 17.6974 32.2039 17.6151 32.2039 17.5493C32.2039 17.4836 32.2204 17.4342 32.2204 17.3684C32.2204 17.3026 32.2204 17.2368 32.2368 17.1875C32.2368 17.1217 32.2533 17.0395 32.2533 16.9737C32.2533 16.9079 32.2533 16.8257 32.2533 16.7599C32.2533 16.6941 32.2533 16.6447 32.2533 16.5789C32.3026 16.3816 32.3026 16.25 32.3026 16.1184ZM29.6546 22.7138C29.6382 22.7303 29.6382 22.7632 29.6217 22.7796C29.6053 22.8125 29.5888 22.8454 29.5724 22.8783C29.5559 22.9112 29.5395 22.9441 29.523 22.977C29.4572 23.0921 29.4079 23.2072 29.3421 23.3059C29.3257 23.3553 29.2928 23.3882 29.2763 23.4375C29.2434 23.4868 29.2105 23.5362 29.1776 23.602C29.1447 23.6513 29.1283 23.6842 29.0954 23.7336C29.0625 23.7829 29.0296 23.8322 28.9967 23.8816C28.9638 23.9309 28.9474 23.9638 28.9145 24.0132C28.8816 24.0625 28.8487 24.1118 28.8158 24.1612C28.7829 24.2105 28.75 24.2599 28.7171 24.3092C28.6842 24.3586 28.6513 24.4079 28.6184 24.4572C28.5855 24.5066 28.5526 24.5559 28.5197 24.6053C28.4868 24.6546 28.4539 24.6875 28.4211 24.7368C28.3717 24.8026 28.3224 24.8684 28.273 24.9342C28.2401 24.9835 28.1908 25.0493 28.1579 25.0987C28.1086 25.1645 28.0757 25.2138 28.0263 25.2796C27.9934 25.3125 27.9605 25.3618 27.9276 25.3947C27.8947 25.4441 27.8454 25.4934 27.7961 25.5428C27.7632 25.5757 27.7303 25.625 27.6974 25.6579C27.6645 25.7072 27.6151 25.7566 27.5658 25.8059C27.5329 25.8388 27.5 25.8882 27.4671 25.921C27.4178 25.9704 27.3849 26.0197 27.3355 26.0691C27.3026 26.102 27.2697 26.1513 27.2368 26.1842C27.1875 26.2336 27.1382 26.2829 27.0888 26.3487C27.0559 26.3816 27.023 26.4145 26.9901 26.4474C26.9243 26.5132 26.8586 26.5954 26.7763 26.6612C26.7599 26.6776 26.7599 26.6776 26.7434 26.6941C23.898 29.523 20.1316 31.0691 16.1184 31.0691H16.102C15.9704 31.0691 15.8388 31.0691 15.7072 31.0691C15.7072 31.0691 15.7072 31.0691 15.6908 31.0691C11.8257 30.9704 8.20724 29.4079 5.46053 26.6612C2.8125 24.0132 1.28289 20.5592 1.08552 16.8586C1.08552 16.8421 1.08552 16.8421 1.08552 16.8257C1.08552 16.727 1.08553 16.6283 1.06908 16.5132C1.06908 16.4803 1.06908 16.4638 1.06908 16.4309C1.06908 16.3322 1.06908 16.2171 1.06908 16.1184C1.06908 16.102 1.06908 16.0691 1.06908 16.0526C1.06908 12.0559 2.64803 8.28948 5.49343 5.46053C5.57566 5.37829 5.6579 5.29605 5.74014 5.21382C5.77303 5.18092 5.78948 5.16447 5.82237 5.14802C5.88816 5.09868 5.9375 5.03289 6.00329 4.98355C6.03618 4.95066 6.06907 4.93421 6.10197 4.90131C6.16776 4.85197 6.2171 4.80264 6.26644 4.75329C6.29934 4.7204 6.33223 4.70395 6.34868 4.67106C6.41447 4.60527 6.48027 4.55592 6.5625 4.49013C6.57895 4.47368 6.5954 4.45724 6.61184 4.44079C6.69408 4.375 6.79276 4.29277 6.875 4.22698C6.90789 4.21053 6.92434 4.17763 6.95723 4.16118C7.02302 4.11184 7.07237 4.0625 7.13816 4.02961C7.17106 3.99671 7.20394 3.98026 7.25329 3.94737C7.30263 3.91447 7.36842 3.86513 7.41776 3.83223C7.45065 3.79934 7.5 3.78289 7.53289 3.75C7.59868 3.7171 7.64803 3.66776 7.71382 3.61842C7.74671 3.60197 7.77961 3.56907 7.8125 3.55263C7.89474 3.48684 7.99342 3.4375 8.07565 3.37171C8.10855 3.35526 8.14145 3.32236 8.17434 3.30592C8.24013 3.27302 8.28947 3.22369 8.35526 3.19079C8.4046 3.1579 8.4375 3.14145 8.48684 3.10856C8.53618 3.07566 8.60197 3.04276 8.65131 3.00987C8.70065 2.99342 8.73356 2.96052 8.7829 2.92763C8.83224 2.89473 8.89803 2.86184 8.94737 2.82895C8.99671 2.8125 9.02961 2.7796 9.07895 2.76316C9.07895 2.76316 9.09539 2.76316 9.09539 2.74671C9.16118 2.71382 9.24342 2.66447 9.30921 2.63158C9.44079 2.56579 9.55592 2.5 9.6875 2.45066C9.04606 4.14474 8.70066 5.98684 8.70066 7.89474C8.70066 9.90132 9.07895 11.8421 9.76974 13.602L10.5428 13.1743L17.8783 9.16119C18.7829 8.61842 19.4079 8.27302 20.3454 8.27302C22.4836 8.27302 24.2105 10 24.2105 12.1382C24.2105 13.0263 23.8816 13.7171 23.3882 14.5066L19.3257 21.7599L18.9309 22.4507C20.0658 22.8783 21.25 23.1579 22.4507 23.3224C22.4671 23.3224 22.5 23.3224 22.5165 23.3224C22.6151 23.3388 22.6974 23.3388 22.796 23.3553C22.8289 23.3553 22.8783 23.3717 22.9112 23.3717C22.9934 23.3717 23.0757 23.3882 23.1414 23.3882C23.1743 23.3882 23.2072 23.3882 23.2401 23.4046C23.5691 23.4211 23.898 23.4375 24.2434 23.4375H24.2599C24.375 23.4375 24.5066 23.4375 24.6217 23.4375C24.6711 23.4375 24.7039 23.4375 24.7533 23.4375C24.8355 23.4375 24.9178 23.4375 25 23.4211C25.0493 23.4211 25.0987 23.4211 25.148 23.4211C25.2303 23.4211 25.2961 23.4211 25.3783 23.4046C25.4276 23.4046 25.4934 23.4046 25.5428 23.3882C25.6086 23.3882 25.6908 23.3717 25.7566 23.3717C25.8059 23.3717 25.8717 23.3553 25.921 23.3553C25.9868 23.3553 26.0691 23.3388 26.1349 23.3224C26.1842 23.3224 26.2336 23.3059 26.2993 23.3059C26.3816 23.2895 26.4638 23.2895 26.5296 23.273C26.5789 23.273 26.6118 23.2566 26.6612 23.2566C26.7763 23.2401 26.8914 23.2237 27.0066 23.1908C27.0559 23.1908 27.1053 23.1743 27.1546 23.1579C27.2204 23.1414 27.3026 23.125 27.3684 23.125C27.4178 23.1085 27.4836 23.0921 27.5329 23.0921C27.5987 23.0757 27.6645 23.0592 27.7138 23.0592C27.7796 23.0428 27.8289 23.0263 27.8947 23.0263C27.9605 23.0099 28.0099 22.9934 28.0757 22.977C28.1414 22.9605 28.1908 22.9441 28.2566 22.9276C28.3059 22.9112 28.3717 22.8947 28.4211 22.8783C28.4868 22.8618 28.5362 22.8454 28.602 22.8289C28.6678 22.8125 28.7171 22.7961 28.7665 22.7796C28.8322 22.7632 28.8816 22.7467 28.9474 22.7303C29.0132 22.7138 29.0625 22.6974 29.1118 22.6809C29.227 22.648 29.3257 22.5987 29.4408 22.5658C29.4901 22.5493 29.5395 22.5329 29.5888 22.5165C29.6875 22.6316 29.6711 22.6645 29.6546 22.7138Z" fill="white"/>
<path d="M17.9771 22.2039C17.9606 22.2039 17.9606 22.1875 17.9442 22.1875L15.9211 25.7895L16.8751 26.3158L18.9639 22.5987L18.9804 22.5658C18.7501 22.4836 18.5198 22.4013 18.306 22.3026C18.1909 22.2533 18.0757 22.204 17.9771 22.1546L17.9606 22.2039C17.9442 22.2039 17.9606 22.2039 17.9771 22.2039Z" fill="white"/>
<path d="M11.6283 17.0559L9.19409 18.9145L9.91777 19.7862L12.3191 17.9276C12.2697 17.8783 12.2204 17.8125 12.1711 17.7632C11.9737 17.5164 11.7763 17.2697 11.6283 17.0559Z" fill="white"/>
<path d="M10.8225 24.5559L11.6613 25.2632L15.4278 20.7895C15.3949 20.773 15.3949 20.773 15.4278 20.7895L15.4607 20.7566C15.1646 20.5428 14.8686 20.329 14.5725 20.0987L14.5561 20.1151L10.8225 24.5559Z" fill="white"/>
<path d="M3.71729 17.023L4.2436 17.977L10.1482 14.7368L10.2304 14.6875C10.066 14.3586 9.93439 14.0296 9.78637 13.6842L9.68769 13.7336L3.71729 17.023Z" fill="white"/>
</svg>
