<svg width="12" height="13" viewBox="0 0 12 13" fill="none" xmlns="http://www.w3.org/2000/svg">
<path d="M0.384806 4.11137C0.550271 3.94595 0.77466 3.85303 1.00863 3.85303C1.2426 3.85303 1.46699 3.94595 1.63245 4.11137L6.0001 8.47902L10.3677 4.11137C10.5342 3.95064 10.757 3.8617 10.9884 3.86371C11.2197 3.86572 11.441 3.95852 11.6046 4.12212C11.7682 4.28571 11.861 4.50702 11.863 4.73837C11.865 4.96972 11.7761 5.1926 11.6154 5.35902L6.62392 10.3505C6.45845 10.5159 6.23406 10.6088 6.0001 10.6088C5.76613 10.6088 5.54174 10.5159 5.37627 10.3505L0.384806 5.35902C0.21939 5.19355 0.126465 4.96916 0.126465 4.73519C0.126465 4.50122 0.21939 4.27683 0.384806 4.11137Z" fill="#717171"/>
</svg>
