<svg width="25" height="25" viewBox="0 0 25 25" fill="none" xmlns="http://www.w3.org/2000/svg">
<path d="M0.801638 7.52384C1.14636 7.17922 1.61384 6.98563 2.10127 6.98563C2.5887 6.98563 3.05618 7.17922 3.4009 7.52384L12.5002 16.6231L21.5994 7.52384C21.9461 7.18899 22.4105 7.0037 22.8924 7.00789C23.3744 7.01208 23.8355 7.20541 24.1763 7.54623C24.5171 7.88705 24.7104 8.3481 24.7146 8.83008C24.7188 9.31206 24.5335 9.77641 24.1987 10.1231L13.7998 20.522C13.4551 20.8666 12.9876 21.0602 12.5002 21.0602C12.0127 21.0602 11.5452 20.8666 11.2005 20.522L0.801638 10.1231C0.457022 9.77838 0.263428 9.3109 0.263428 8.82347C0.263428 8.33603 0.457022 7.86856 0.801638 7.52384Z" fill="black"/>
</svg>
