<svg width="18" height="18" viewBox="0 0 18 18" fill="none" xmlns="http://www.w3.org/2000/svg">
<path d="M11 9H7V7H11M11 13H7V11H11M17 5H14.19C13.739 4.21774 13.1168 3.54767 12.37 3.04L14 1.41L12.59 0L10.42 2.17C9.49015 1.94443 8.51985 1.94443 7.59 2.17L5.41 0L4 1.41L5.62 3.04C4.88 3.55 4.26 4.22 3.81 5H1V7H3.09C3.04 7.33 3 7.66 3 8V9H1V11H3V12C3 12.34 3.04 12.67 3.09 13H1V15H3.81C4.85 16.79 6.78 18 9 18C11.22 18 13.15 16.79 14.19 15H17V13H14.91C14.96 12.67 15 12.34 15 12V11H17V9H15V8C15 7.66 14.96 7.33 14.91 7H17V5Z" fill="white"/>
</svg>
