<svg width="25" height="25" viewBox="0 0 25 25" fill="none" xmlns="http://www.w3.org/2000/svg">
<path d="M14.9372 12.5L21.7587 5.67839C22.0825 5.35521 22.2646 4.91666 22.265 4.45921C22.2654 4.00176 22.0841 3.56289 21.7609 3.23914C21.4377 2.91539 20.9992 2.73328 20.5417 2.73288C20.0843 2.73247 19.6454 2.91381 19.3216 3.23699L12.5001 10.0586L5.67848 3.23699C5.35473 2.91324 4.91563 2.73135 4.45778 2.73135C3.99993 2.73135 3.56083 2.91324 3.23708 3.23699C2.91333 3.56074 2.73145 3.99984 2.73145 4.45769C2.73145 4.91554 2.91333 5.35464 3.23708 5.67839L10.0587 12.5L3.23708 19.3215C2.91333 19.6453 2.73145 20.0844 2.73145 20.5422C2.73145 21.0001 2.91333 21.4392 3.23708 21.763C3.56083 22.0867 3.99993 22.2686 4.45778 22.2686C4.91563 22.2686 5.35473 22.0867 5.67848 21.763L12.5001 14.9414L19.3216 21.763C19.6454 22.0867 20.0845 22.2686 20.5423 22.2686C21.0002 22.2686 21.4393 22.0867 21.763 21.763C22.0868 21.4392 22.2687 21.0001 22.2687 20.5422C22.2687 20.0844 22.0868 19.6453 21.763 19.3215L14.9372 12.5Z" fill="white"/>
</svg>
