<svg width="50" height="50" viewBox="0 0 50 50" fill="none" xmlns="http://www.w3.org/2000/svg">
<g clip-path="url(#clip0_1080_2260)">
<mask id="mask0_1080_2260" style="mask-type:luminance" maskUnits="userSpaceOnUse" x="0" y="0" width="50" height="50">
<path d="M50 0H0V50H50V0Z" fill="white"/>
</mask>
<g mask="url(#mask0_1080_2260)">
<path d="M12.3525 25.9046L12.8788 26.8586L18.7834 23.6184L18.8656 23.5691C18.7011 23.2401 18.5696 22.9112 18.4215 22.5658L18.3229 22.6151L12.3525 25.9046Z" fill="black"/>
<path d="M19.4575 33.4374L20.2963 34.1446L24.0627 29.671C24.0298 29.6545 24.0298 29.6545 24.0627 29.671L24.0956 29.6381C23.7996 29.4242 23.5035 29.2104 23.2075 28.9802L23.191 28.9966L19.4575 33.4374Z" fill="black"/>
<path d="M20.2633 25.9375L17.8291 27.7961L18.5527 28.6678L20.9541 26.8092C20.9047 26.7599 20.8554 26.6941 20.806 26.6447C20.6087 26.398 20.4113 26.1513 20.2633 25.9375Z" fill="black"/>
<path d="M26.6121 31.0854C26.5957 31.0854 26.5957 31.069 26.5792 31.069L24.5562 34.671L25.5102 35.1973L27.599 31.4802L27.6154 31.4473C27.3852 31.365 27.1549 31.2828 26.9411 31.1841C26.8259 31.1348 26.7108 31.0854 26.6121 31.0361L26.5957 31.0854C26.5792 31.0854 26.5957 31.0854 26.6121 31.0854Z" fill="black"/>
<path d="M27.0395 24.4407C26.4638 24.0953 25.9868 23.6183 25.6579 23.0427L20.9375 26.7927C20.9539 26.8091 20.9704 26.842 21.0033 26.8584C21.0362 26.8913 21.0526 26.9242 21.0855 26.9571C21.1513 27.0229 21.2007 27.0887 21.2664 27.1545C21.2993 27.2038 21.3487 27.2367 21.398 27.2861C21.4474 27.3354 21.4967 27.3848 21.5461 27.4506C21.6118 27.5163 21.6776 27.5821 21.7434 27.6479C21.7763 27.6808 21.7928 27.6973 21.8257 27.7302C21.8586 27.763 21.875 27.7795 21.9079 27.8124C21.9737 27.8782 22.0395 27.944 22.1053 28.0098C22.1546 28.0591 22.2039 28.1085 22.2533 28.1578C22.3026 28.1907 22.3355 28.24 22.3849 28.2894C22.4507 28.3552 22.5164 28.4045 22.5822 28.4703C22.6151 28.5032 22.648 28.5196 22.6645 28.5525C22.7467 28.6348 22.829 28.7006 22.9276 28.7663C22.9441 28.7828 22.9441 28.7828 22.9605 28.7992C23.0428 28.865 23.125 28.9308 23.2237 28.9966L26.8257 24.7367L27.0395 24.4407Z" fill="black"/>
<path d="M20.2631 25.9374L20.5591 25.7071L25.2466 21.99C25.1808 21.7104 25.1479 21.4144 25.1479 21.1348C25.1479 20.7729 25.1973 20.4275 25.296 20.0986L19.0789 23.5032L18.8979 23.6019C19.0624 23.9308 19.227 24.2598 19.4079 24.5723C19.3915 24.5558 19.6874 25.1315 20.2631 25.9374Z" fill="black"/>
<path d="M26.6777 30.8881L30.0823 24.8191C29.7534 24.9178 29.3915 24.9671 29.0297 24.9671C28.7172 24.9671 28.4211 24.9342 28.1415 24.8684L24.1284 29.6382C24.9178 30.1809 25.7402 30.6414 26.6284 31.0362L26.6777 30.8881Z" fill="black"/>
<path d="M40.9379 25C40.9379 24.8684 40.9379 24.7368 40.9379 24.6053C40.9379 24.5395 40.9379 24.4737 40.9379 24.4079C40.9379 24.3421 40.9379 24.2763 40.9379 24.2105C40.9379 24.1447 40.9379 24.0625 40.9214 23.9967C40.9214 23.9309 40.9215 23.8651 40.905 23.7993C40.905 23.7336 40.8886 23.6842 40.8886 23.6184C40.8886 23.5526 40.8721 23.4704 40.8721 23.4046C40.8721 23.3553 40.8557 23.3224 40.8557 23.273C40.8392 23.1908 40.8392 23.0921 40.8228 23.0099C40.8228 22.9934 40.8228 22.9605 40.8063 22.9441C40.6254 21.4967 40.2471 20.0987 39.6715 18.75C39.0629 17.3191 38.257 15.9868 37.2701 14.7862C37.2537 14.7697 37.2372 14.7533 37.2208 14.7368C37.155 14.6546 37.0892 14.5724 37.0234 14.4901C36.9905 14.4572 36.9576 14.4079 36.9247 14.375C36.9247 14.375 36.9247 14.3585 36.9083 14.3585C36.859 14.3092 36.8096 14.2434 36.7603 14.1941L36.7438 14.1776C36.6945 14.1283 36.6451 14.0789 36.5958 14.0132C36.5629 13.9803 36.53 13.9474 36.4971 13.898C36.4149 13.8158 36.3326 13.7336 36.2504 13.6349C36.2504 13.6349 36.2339 13.6184 36.2339 13.602C36.1846 13.5526 36.1353 13.5033 36.0859 13.4539C36.0366 13.4046 36.0037 13.3717 35.9543 13.3224C35.9214 13.2895 35.8886 13.2566 35.8392 13.2237C35.7734 13.1743 35.7241 13.1086 35.6583 13.0592C35.6089 13.0099 35.5432 12.9605 35.4774 12.9112C35.4445 12.8783 35.3951 12.8454 35.3622 12.8125C35.28 12.7467 35.1978 12.6809 35.132 12.6151C35.1155 12.5987 35.0991 12.5822 35.0662 12.5658C33.8655 11.5789 32.5333 10.773 31.1024 10.1645C29.8524 9.63816 28.5695 9.27633 27.2372 9.07896C27.1221 9.06251 27.0234 9.04606 26.9083 9.02961C26.8754 9.02961 26.8589 9.02961 26.8261 9.01316C26.7438 8.99672 26.6451 8.99672 26.5629 8.98027C26.5136 8.98027 26.4642 8.96382 26.4149 8.96382C26.3491 8.96382 26.2833 8.94738 26.2011 8.94738C26.1353 8.94738 26.0695 8.93093 26.0037 8.93093C25.9379 8.93093 25.8886 8.93093 25.8228 8.91448C25.7405 8.91448 25.6747 8.89803 25.5925 8.89803C25.5267 8.89803 25.4609 8.89803 25.3951 8.88159C25.3293 8.88159 25.2636 8.88159 25.1978 8.88159C25.0662 8.88159 24.9346 8.88159 24.7866 8.88159H24.7701C24.6714 8.88159 24.5728 8.88159 24.4741 8.88159C24.4412 8.88159 24.4083 8.88159 24.3754 8.88159C24.2767 8.88159 24.178 8.88159 24.0629 8.89803C24.03 8.89803 23.9971 8.89803 23.9642 8.89803C23.8655 8.89803 23.7833 8.91448 23.6846 8.91448C23.6517 8.91448 23.6024 8.91448 23.5695 8.93093C23.4872 8.93093 23.4214 8.94738 23.3557 8.94738C23.2899 8.94738 23.2405 8.96382 23.1747 8.96382C23.1254 8.96382 23.0761 8.98027 23.0267 8.98027C22.9445 8.99672 22.8622 8.99672 22.78 9.01316C22.7471 9.01316 22.7307 9.01316 22.6978 9.02961C21.2668 9.21053 19.8688 9.58883 18.5201 10.148C18.4379 10.1809 18.3721 10.2138 18.3063 10.2467C16.9576 10.8388 15.6912 11.6118 14.5563 12.5493C14.5399 12.5658 14.507 12.5822 14.4905 12.5987C14.4083 12.6645 14.3425 12.7303 14.2603 12.796C14.2109 12.8289 14.178 12.8783 14.1287 12.9112C14.0793 12.9605 14.0136 13.0099 13.9642 13.0592C13.8984 13.125 13.8326 13.1908 13.7504 13.2566C13.7175 13.2895 13.7011 13.3059 13.6682 13.3388C13.5695 13.421 13.4708 13.5197 13.3886 13.6184C13.3063 13.7171 13.2076 13.7993 13.109 13.898C13.0761 13.9309 13.0596 13.9638 13.0267 13.9803C12.9609 14.0461 12.8951 14.1118 12.8458 14.1776C12.7964 14.227 12.7471 14.2763 12.6978 14.3421C12.6649 14.3914 12.6155 14.4243 12.5826 14.4737C12.5168 14.5559 12.4511 14.6217 12.3853 14.7039C12.3688 14.7204 12.3524 14.7533 12.3195 14.7697C12.2372 14.8684 12.155 14.9671 12.0728 15.0658C11.1846 16.1842 10.4609 17.4013 9.90169 18.7171C9.37538 19.9507 9.01353 21.2335 8.81616 22.5493V22.5658C8.79972 22.6645 8.78327 22.7796 8.76682 22.8783C8.76682 22.9112 8.76683 22.9441 8.75038 22.9605C8.73393 23.0428 8.73393 23.125 8.71748 23.2072C8.71748 23.2566 8.70104 23.3059 8.70104 23.3553C8.70104 23.4211 8.68459 23.4868 8.68459 23.5526C8.68459 23.6184 8.66814 23.6842 8.66814 23.7664C8.66814 23.8158 8.66814 23.8816 8.65169 23.9309C8.65169 24.0132 8.63525 24.0954 8.63525 24.1776C8.63525 24.2434 8.63525 24.2928 8.63525 24.3585C8.63525 24.4408 8.63525 24.5066 8.63525 24.5888C8.63525 24.7204 8.63525 24.852 8.63525 24.9836C8.63525 25.1151 8.63525 25.2467 8.63525 25.3947C8.63525 25.4605 8.63525 25.5263 8.63525 25.6086C8.63525 25.6743 8.63525 25.7401 8.63525 25.8059C8.63525 25.8882 8.65169 25.9539 8.65169 26.0362C8.65169 26.102 8.6517 26.1513 8.66814 26.2007C8.66814 26.2664 8.68459 26.3322 8.68459 26.398C8.68459 26.4638 8.70104 26.5296 8.70104 26.5954C8.70104 26.6447 8.71748 26.6941 8.71748 26.7434C8.71748 26.8257 8.73393 26.9079 8.75038 26.9901C8.75038 27.023 8.75038 27.0395 8.76682 27.0724C8.78327 27.171 8.79972 27.2862 8.81616 27.3849C8.81616 27.3849 8.81616 27.3849 8.81616 27.4013C9.01353 28.7171 9.37538 30 9.90169 31.25C10.5103 32.6809 11.3162 34.0132 12.303 35.2138C12.3195 35.2303 12.3195 35.2467 12.3359 35.2467C12.4017 35.3289 12.4839 35.4112 12.5497 35.5099C12.5826 35.5428 12.5991 35.5757 12.632 35.6085C12.6978 35.6743 12.7471 35.7401 12.8129 35.8059C12.8458 35.8553 12.8951 35.8882 12.9445 35.9375C12.9938 35.9868 13.0432 36.0362 13.0925 36.102C13.1583 36.1678 13.2241 36.2336 13.2899 36.2993C13.3228 36.3322 13.3392 36.3487 13.3721 36.3816C13.405 36.4145 13.4214 36.4309 13.4543 36.4638C13.5201 36.5296 13.5859 36.5954 13.6517 36.6612C13.7011 36.7105 13.7504 36.7599 13.7997 36.8092C13.8491 36.8421 13.882 36.8914 13.9313 36.9408C13.9971 37.0066 14.0629 37.0559 14.1287 37.1217C14.1616 37.1546 14.1945 37.1711 14.2109 37.2039C14.2932 37.2862 14.3754 37.352 14.4741 37.4178C14.4905 37.4342 14.4905 37.4342 14.507 37.4507C15.7076 38.4375 17.0399 39.2434 18.4708 39.852C19.8195 40.4276 21.234 40.8059 22.6813 40.9868C22.6978 40.9868 22.7307 40.9868 22.7471 40.9868C22.8458 41.0033 22.928 41.0033 23.0267 41.0197C23.0596 41.0197 23.109 41.0362 23.1418 41.0362C23.2241 41.0362 23.3063 41.0526 23.3721 41.0526C23.4214 41.0526 23.4872 41.0691 23.5366 41.0691C23.6024 41.0691 23.6846 41.0855 23.7504 41.0855C23.8162 41.0855 23.882 41.0855 23.9313 41.102C24.0136 41.102 24.1122 41.102 24.1945 41.1184C24.2438 41.1184 24.2767 41.1184 24.3261 41.1184C24.4576 41.1184 24.5892 41.1184 24.7372 41.1184H24.7537H24.7701C24.9017 41.1184 25.0333 41.1184 25.1649 41.1184C25.2307 41.1184 25.3129 41.1184 25.3787 41.1184C25.4445 41.1184 25.5103 41.1184 25.5596 41.1184C25.6418 41.1184 25.7241 41.102 25.7899 41.102C25.8392 41.102 25.905 41.102 25.9543 41.0855C26.0201 41.0855 26.0859 41.0691 26.1517 41.0691C26.2175 41.0691 26.2833 41.0526 26.3491 41.0526C26.3984 41.0526 26.4313 41.0362 26.4807 41.0362C26.5629 41.0197 26.6616 41.0197 26.7438 41.0033C26.7603 41.0033 26.7767 41.0033 26.8096 41.0033C28.257 40.8224 29.655 40.4441 31.0037 39.8849C32.4511 39.2763 33.7833 38.4704 34.984 37.4836L35.0004 37.4671C35.0991 37.3849 35.1813 37.3191 35.28 37.2368C35.2964 37.2204 35.3293 37.1875 35.3622 37.171C35.4445 37.1053 35.5103 37.0395 35.5761 36.9737C35.6089 36.9408 35.6418 36.9079 35.6912 36.875C35.757 36.8257 35.8063 36.7599 35.8721 36.7105C35.905 36.6776 35.9543 36.6283 35.9872 36.5954C36.0366 36.546 36.1024 36.4967 36.1517 36.4309C36.2011 36.3816 36.2504 36.3322 36.2997 36.2664C36.3326 36.2171 36.382 36.1842 36.4313 36.1349C36.4807 36.0691 36.5464 36.0197 36.5958 35.9539C36.6287 35.921 36.6616 35.8882 36.6945 35.8388C36.7603 35.773 36.8261 35.6908 36.8918 35.625C36.9083 35.6085 36.9412 35.5757 36.9576 35.5428C37.0399 35.4605 37.1057 35.3618 37.1879 35.2796C37.1879 35.2632 37.2043 35.2632 37.2043 35.2467C38.1912 34.046 39.0136 32.7303 39.6221 31.2829C39.6386 31.2336 39.6714 31.1678 39.6879 31.1184C40.2142 29.8191 40.5761 28.4868 40.757 27.1053C40.757 27.0888 40.757 27.0559 40.7734 27.0395C40.7899 26.9572 40.7899 26.8585 40.8063 26.7763C40.8063 26.727 40.8228 26.6941 40.8228 26.6447C40.8228 26.5789 40.8392 26.4967 40.8392 26.4309C40.8392 26.3651 40.8557 26.3158 40.8557 26.25C40.8557 26.1842 40.8557 26.1184 40.8721 26.0691C40.8721 26.0033 40.8886 25.9211 40.8886 25.8553C40.8886 25.7895 40.8886 25.7072 40.8886 25.6414C40.8886 25.5757 40.8886 25.5263 40.8886 25.4605C40.9379 25.2632 40.9379 25.1316 40.9379 25ZM38.2899 31.5954C38.2734 31.6118 38.2734 31.6447 38.257 31.6612C38.2405 31.6941 38.2241 31.727 38.2076 31.7599C38.1912 31.7928 38.1747 31.8257 38.1583 31.8586C38.0925 31.9737 38.0432 32.0888 37.9774 32.1875C37.9609 32.2368 37.928 32.2697 37.9116 32.3191C37.8787 32.3684 37.8458 32.4178 37.8129 32.4835C37.78 32.5329 37.7636 32.5658 37.7307 32.6151C37.6978 32.6645 37.6649 32.7138 37.632 32.7632C37.5991 32.8125 37.5826 32.8454 37.5497 32.8947C37.5168 32.9441 37.484 32.9934 37.4511 33.0428C37.4182 33.0921 37.3853 33.1414 37.3524 33.1908C37.3195 33.2401 37.2866 33.2895 37.2537 33.3388C37.2208 33.3882 37.1879 33.4375 37.155 33.4868C37.1221 33.5362 37.0892 33.5691 37.0563 33.6184C37.007 33.6842 36.9576 33.75 36.9083 33.8158C36.8754 33.8651 36.8261 33.9309 36.7932 33.9803C36.7438 34.046 36.7109 34.0954 36.6616 34.1612C36.6287 34.1941 36.5958 34.2434 36.5629 34.2763C36.53 34.3257 36.4807 34.375 36.4313 34.4243C36.3984 34.4572 36.3655 34.5066 36.3326 34.5395C36.2997 34.5888 36.2504 34.6382 36.2011 34.6875C36.1682 34.7204 36.1353 34.7697 36.1024 34.8026C36.053 34.852 36.0201 34.9013 35.9708 34.9507C35.9379 34.9835 35.905 35.0329 35.8721 35.0658C35.8228 35.1151 35.7734 35.1645 35.7241 35.2303C35.6912 35.2632 35.6583 35.296 35.6254 35.3289C35.5596 35.3947 35.4938 35.477 35.4116 35.5428C35.3951 35.5592 35.3951 35.5592 35.3787 35.5757C32.5333 38.4046 28.7668 39.9507 24.7537 39.9507H24.7372C24.6057 39.9507 24.4741 39.9507 24.3425 39.9507C24.3425 39.9507 24.3425 39.9507 24.3261 39.9507C20.4609 39.852 16.8425 38.2895 14.0958 35.5428C11.4478 32.8947 9.91814 29.4408 9.72077 25.7401C9.72077 25.7237 9.72077 25.7237 9.72077 25.7072C9.72077 25.6085 9.72077 25.5099 9.70432 25.3947C9.70432 25.3618 9.70432 25.3454 9.70432 25.3125C9.70432 25.2138 9.70432 25.0987 9.70432 25C9.70432 24.9835 9.70432 24.9507 9.70432 24.9342C9.70432 20.9375 11.2833 17.1711 14.1287 14.3421C14.2109 14.2599 14.2932 14.1776 14.3754 14.0954C14.4083 14.0625 14.4247 14.046 14.4576 14.0296C14.5234 13.9803 14.5728 13.9145 14.6386 13.8651C14.6714 13.8322 14.7043 13.8158 14.7372 13.7829C14.803 13.7335 14.8524 13.6842 14.9017 13.6349C14.9346 13.602 14.9675 13.5855 14.9839 13.5526C15.0497 13.4868 15.1155 13.4375 15.1978 13.3717C15.2142 13.3553 15.2307 13.3388 15.2471 13.3224C15.3293 13.2566 15.428 13.1743 15.5103 13.1086C15.5432 13.0921 15.5596 13.0592 15.5925 13.0428C15.6583 12.9934 15.7076 12.9441 15.7734 12.9112C15.8063 12.8783 15.8392 12.8618 15.8886 12.8289C15.9379 12.7961 16.0037 12.7467 16.053 12.7138C16.0859 12.6809 16.1353 12.6645 16.1682 12.6316C16.2339 12.5987 16.2833 12.5493 16.3491 12.5C16.382 12.4836 16.4149 12.4507 16.4478 12.4342C16.53 12.3684 16.6287 12.3191 16.7109 12.2533C16.7438 12.2368 16.7767 12.2039 16.8096 12.1875C16.8754 12.1546 16.9247 12.1053 16.9905 12.0724C17.0399 12.0395 17.0728 12.023 17.1221 11.9901C17.1714 11.9572 17.2372 11.9243 17.2866 11.8914C17.3359 11.875 17.3688 11.8421 17.4182 11.8092C17.4675 11.7763 17.5333 11.7434 17.5826 11.7105C17.632 11.6941 17.6649 11.6612 17.7142 11.6447C17.7142 11.6447 17.7307 11.6447 17.7307 11.6283C17.7964 11.5954 17.8787 11.5461 17.9445 11.5132C18.0761 11.4474 18.1912 11.3816 18.3228 11.3322C17.6813 13.0263 17.3359 14.8684 17.3359 16.7763C17.3359 18.7829 17.7142 20.7237 18.405 22.4836L19.178 22.0559L26.5136 18.0428C27.4182 17.5 28.0432 17.1546 28.9807 17.1546C31.1188 17.1546 32.8458 18.8816 32.8458 21.0197C32.8458 21.9079 32.5168 22.5987 32.0234 23.3882L27.9609 30.6414L27.5662 31.3322C28.7011 31.7599 29.8853 32.0395 31.0859 32.2039C31.1024 32.2039 31.1353 32.2039 31.1517 32.2039C31.2504 32.2204 31.3326 32.2204 31.4313 32.2368C31.4642 32.2368 31.5136 32.2533 31.5464 32.2533C31.6287 32.2533 31.7109 32.2697 31.7767 32.2697C31.8096 32.2697 31.8425 32.2697 31.8754 32.2862C32.2043 32.3026 32.5333 32.3191 32.8787 32.3191H32.8951C33.0103 32.3191 33.1418 32.3191 33.257 32.3191C33.3063 32.3191 33.3392 32.3191 33.3886 32.3191C33.4708 32.3191 33.553 32.3191 33.6353 32.3026C33.6846 32.3026 33.734 32.3026 33.7833 32.3026C33.8655 32.3026 33.9313 32.3026 34.0136 32.2862C34.0629 32.2862 34.1287 32.2862 34.178 32.2697C34.2438 32.2697 34.3261 32.2533 34.3918 32.2533C34.4412 32.2533 34.507 32.2368 34.5563 32.2368C34.6221 32.2368 34.7043 32.2204 34.7701 32.2039C34.8195 32.2039 34.8688 32.1875 34.9346 32.1875C35.0168 32.1711 35.0991 32.171 35.1649 32.1546C35.2142 32.1546 35.2471 32.1382 35.2964 32.1382C35.4116 32.1217 35.5267 32.1053 35.6418 32.0724C35.6912 32.0724 35.7405 32.0559 35.7899 32.0395C35.8557 32.023 35.9379 32.0066 36.0037 32.0066C36.053 31.9901 36.1188 31.9737 36.1682 31.9737C36.234 31.9572 36.2997 31.9408 36.3491 31.9408C36.4149 31.9243 36.4642 31.9079 36.53 31.9079C36.5958 31.8914 36.6451 31.875 36.7109 31.8586C36.7767 31.8421 36.8261 31.8257 36.8918 31.8092C36.9412 31.7928 37.007 31.7763 37.0563 31.7599C37.1221 31.7434 37.1715 31.727 37.2372 31.7105C37.303 31.6941 37.3524 31.6776 37.4017 31.6612C37.4675 31.6447 37.5168 31.6283 37.5826 31.6118C37.6484 31.5954 37.6978 31.5789 37.7471 31.5625C37.8622 31.5296 37.9609 31.4803 38.0761 31.4474C38.1254 31.4309 38.1747 31.4145 38.2241 31.398C38.3228 31.5132 38.3063 31.546 38.2899 31.5954Z" fill="black"/>
<path d="M10.181 13.6184C9.65464 14.6546 9.21055 15.4934 8.81581 16.1513C8.55266 16.579 8.27306 16.8421 7.96056 16.9408C7.64806 17.0395 7.30266 16.9572 6.90792 16.727L5.00003 15.5757C4.5724 15.329 4.34213 15.0329 4.27634 14.704C4.21055 14.375 4.32569 13.9803 4.60529 13.5197L6.05266 11.1349L6.89148 11.6447L5.59213 13.7665C5.42766 14.0296 5.477 14.2434 5.70727 14.375L7.63161 15.5263C7.73029 15.5757 7.81252 15.5921 7.91121 15.5757C7.99344 15.5428 8.07569 15.4934 8.12503 15.3947C8.17437 15.2961 8.24016 15.1974 8.30595 15.0822C8.37174 14.9671 8.43753 14.852 8.50332 14.7368C8.56911 14.6217 8.6349 14.4901 8.71713 14.375C8.78292 14.2434 8.8816 14.0954 8.98029 13.8816C9.07897 13.6842 9.21055 13.4375 9.37503 13.1415L10.181 13.6184Z" fill="black"/>
<path d="M8.58545 8.32231L11.7269 5.72363L14.2269 8.7335L14.671 8.35521L15.8716 9.80258L14.8519 10.6414L14.2105 9.99994L11.8749 11.9407L12.4012 12.6808L11.3815 13.5196L10.1808 12.0723L10.5756 11.7433C10.592 11.5295 10.5756 11.3321 10.5098 11.1348C10.444 10.9374 10.3618 10.7729 10.2631 10.6414L8.58545 8.32231ZM13.1578 9.62165L11.2828 7.36836L10.1808 8.28942L11.2006 9.70389C11.365 9.93415 11.4966 10.1973 11.5624 10.5098C11.5953 10.6414 11.6118 10.7565 11.6282 10.8881L13.1578 9.62165Z" fill="black"/>
<path d="M20.6253 7.03941L16.5792 8.53612L14.8687 3.96375L18.9148 2.46704L19.2601 3.38809L16.5299 4.39138L16.8588 5.27954L19.0134 4.49006L19.3588 5.41112L17.2042 6.20059L17.5496 7.15454L20.2799 6.15125L20.6253 7.03941Z" fill="black"/>
<path d="M23.273 6.51318C23.0592 6.71055 22.8125 6.80923 22.5 6.82568C22.1875 6.82568 21.8914 6.80923 21.6283 6.77634L21.6118 5.83884L21.9572 5.82239C22.0559 5.82239 22.1381 5.78949 22.2039 5.7237C22.2697 5.65791 22.3026 5.59213 22.3026 5.49344L22.4506 1.85857L26.7598 1.75989L26.875 6.64476L25.4769 6.67765L25.3783 2.76318L23.75 2.79607L23.6184 5.69081C23.5855 6.05265 23.4704 6.31581 23.273 6.51318Z" fill="black"/>
<path d="M29.4411 7.22038L27.9937 6.74341L31.497 2.7467L32.9773 3.24012L33.3884 8.51972L31.9411 8.04275L31.8753 7.10525L30.0332 6.4967L29.4411 7.22038ZM30.6746 5.74012L31.8588 6.13486L31.7766 4.39144L30.6746 5.74012Z" fill="black"/>
<path d="M38.1251 12.0395L37.0231 11.1842L38.2567 9.62167L36.7271 8.43746L35.4935 9.99996L34.3916 9.1447L37.4014 5.29602L38.5034 6.15128L37.3192 7.66444L38.8488 8.84865L40.033 7.33549L41.135 8.19075L38.1251 12.0395Z" fill="black"/>
<path d="M42.9934 16.7104C42.5822 16.9736 42.2039 17.0558 41.8914 16.9736C41.5789 16.8913 41.2664 16.6117 40.9703 16.1512L39.9341 14.5065C39.6381 14.046 39.523 13.6512 39.5887 13.3223C39.6381 12.9933 39.8848 12.6973 40.296 12.4506L42.1874 11.2663C42.5986 11.0032 42.9769 10.921 43.2894 11.0032C43.6019 11.0854 43.9144 11.365 44.2105 11.8256L45.2466 13.4703C45.5427 13.9308 45.6578 14.3256 45.592 14.6381C45.5427 14.967 45.296 15.2631 44.8848 15.5262L42.9934 16.7104ZM44.1447 14.342C44.3749 14.194 44.4078 13.9802 44.2433 13.717L43.5361 12.5986C43.3716 12.3354 43.1743 12.2861 42.9276 12.4341L41.0361 13.6183C40.8058 13.7663 40.773 13.9802 40.9374 14.2433L41.6447 15.3617C41.8091 15.6249 42.0065 15.6742 42.2532 15.5262L44.1447 14.342Z" fill="black"/>
<path d="M6.26667 26.217L6.82588 29.2598C6.92457 29.7532 6.87523 30.1479 6.7272 30.4111C6.56273 30.6742 6.28312 30.8552 5.85548 30.9374C5.57588 30.9867 5.34562 30.9703 5.14825 30.8552C4.95088 30.7565 4.80286 30.6085 4.68773 30.4275C4.67128 30.8552 4.47391 31.1841 4.09562 31.3979C3.96404 31.4802 3.79957 31.5295 3.61865 31.5624C3.17457 31.6446 2.81272 31.5953 2.56601 31.3979C2.3193 31.2006 2.13839 30.8552 2.0397 30.3617L1.43115 27.0887L6.26667 26.217ZM3.58575 30.1808C3.86535 30.1315 3.96404 29.9506 3.9147 29.6545L3.63509 28.1249L2.6647 28.3058L2.94431 29.8354C2.99365 30.1315 3.15812 30.2631 3.43773 30.2137L3.58575 30.1808ZM5.46075 29.6052C5.74036 29.5558 5.83904 29.3749 5.7897 29.0788L5.54299 27.7795L4.57259 27.9604L4.8193 29.2598C4.86864 29.5558 5.04957 29.6874 5.31272 29.6381L5.46075 29.6052Z" fill="black"/>
<path d="M11.6117 37.944C11.6939 38.0427 11.8255 38.24 11.99 38.5361L11.2499 39.1282L11.0525 38.8815C11.0032 38.8157 10.9374 38.7828 10.8716 38.7664C10.8058 38.7499 10.74 38.7335 10.6742 38.7499L9.22684 38.9637L8.24 41.694L7.31895 40.5427L8.12487 38.3552L7.68079 37.8124L6.11829 39.0624L5.24658 37.9769L9.06236 34.9177L9.93408 36.0032L8.43737 37.2039L8.88145 37.7466L10.411 37.5163C10.6413 37.4835 10.8551 37.4999 11.0525 37.5492C11.2499 37.5986 11.4472 37.7302 11.6117 37.944Z" fill="black"/>
<path d="M15.0662 44.9177C14.803 45.3288 14.507 45.5591 14.1781 45.6085C13.8491 45.6578 13.4544 45.5427 12.9938 45.2466L11.3491 44.2104C10.8886 43.9144 10.609 43.6183 10.5267 43.2894C10.4445 42.9769 10.5267 42.5986 10.7899 42.1874L11.9906 40.3124C12.2537 39.9012 12.5498 39.671 12.8787 39.6216C13.2077 39.5723 13.6024 39.6874 14.0629 39.9835L15.7077 41.0361C16.1682 41.3321 16.4478 41.6282 16.53 41.9571C16.6123 42.2696 16.53 42.6479 16.2669 43.0591L15.0662 44.9177ZM15.0991 42.2861C15.2471 42.0558 15.1978 41.842 14.9346 41.6775L13.8162 40.9703C13.5531 40.8058 13.3392 40.8387 13.1912 41.069L11.9906 42.944C11.8425 43.1742 11.8919 43.3881 12.155 43.5525L13.2734 44.2598C13.5366 44.4242 13.734 44.3914 13.8984 44.1611L15.0991 42.2861Z" fill="black"/>
<path d="M18.2241 42.4012L21.3984 43.1578C21.9247 43.2894 22.2866 43.4867 22.4675 43.7499C22.6484 44.0131 22.6978 44.3913 22.5826 44.8683L22.4182 45.5427C22.303 46.0196 22.1057 46.3321 21.8096 46.4966C21.5136 46.6611 21.1024 46.6775 20.5761 46.546L18.7668 46.1183L18.4379 47.467L17.0728 47.1381L18.2241 42.4012ZM21.2339 44.5394C21.2997 44.2598 21.1846 44.0953 20.8721 44.0295L19.359 43.6677L18.9971 45.1644L20.5103 45.5262C20.8063 45.592 21.0037 45.4933 21.053 45.2302L21.2339 44.5394Z" fill="black"/>
<path d="M29.3916 46.6447C29.441 47.1382 29.3423 47.5 29.1285 47.7303C28.8982 47.977 28.5199 48.125 27.9772 48.1743L26.0364 48.3553C25.4936 48.4046 25.0824 48.3388 24.8193 48.1415C24.5561 47.9441 24.3916 47.5987 24.3423 47.1217L24.1285 44.9013C24.0791 44.4079 24.1614 44.0461 24.3916 43.8158C24.6219 43.5691 25.0002 43.4211 25.5429 43.3717L27.4837 43.1908C28.0265 43.1414 28.4377 43.2072 28.7008 43.4046C28.964 43.602 29.1285 43.9474 29.1778 44.4243L29.3916 46.6447ZM27.7798 44.5559C27.7469 44.2763 27.5824 44.1612 27.2699 44.1776L25.9541 44.3092C25.6416 44.3421 25.5101 44.4901 25.5265 44.7697L25.7403 46.9901C25.7732 47.2697 25.9377 47.3849 26.2502 47.3684L27.566 47.2368C27.8785 47.204 28.0101 47.0559 27.9936 46.7763L27.7798 44.5559Z" fill="black"/>
<path d="M33.4542 46.4309C33.3391 46.6941 33.1417 46.8915 32.8621 47.023C32.5825 47.1546 32.3029 47.2533 32.0398 47.3355L31.645 46.4803L31.9575 46.3322C32.0398 46.2993 32.1056 46.2336 32.1385 46.1513C32.1713 46.0691 32.1713 45.9868 32.1385 45.9046L30.8062 42.5164L34.7207 40.6908L36.7931 45.1151L35.5266 45.7072L33.8654 42.1711L32.3852 42.8618L33.4378 45.5757C33.5529 45.8882 33.5694 46.1678 33.4542 46.4309Z" fill="black"/>
<path d="M35.4111 38.3552L36.3651 37.4506L37.0394 38.1578L36.0855 39.0624L35.4111 38.3552ZM42.4342 40.3946L39.2927 43.3552L35.921 39.8025L39.0625 36.842L39.7368 37.5492L37.6151 39.5394L38.273 40.2302L39.9342 38.6677L40.6085 39.3749L38.9473 40.9374L39.6381 41.6775L41.7598 39.6874L42.4342 40.3946ZM36.7105 37.1381L37.6644 36.2335L38.3388 36.9407L37.3848 37.8453L36.7105 37.1381Z" fill="black"/>
<path d="M39.7861 35.8882L41.2828 33.1743C41.5295 32.7303 41.7927 32.4507 42.0888 32.352C42.3848 32.2533 42.7138 32.2862 43.092 32.5C43.3388 32.6316 43.5032 32.7961 43.5855 33.0099C43.6677 33.2072 43.7006 33.4211 43.6677 33.6184C43.9638 33.3059 44.3256 33.1743 44.7368 33.2237C44.8848 33.2566 45.0493 33.3059 45.2138 33.3882C45.6085 33.602 45.8552 33.8651 45.921 34.1776C46.0032 34.4901 45.9046 34.8684 45.6743 35.3125L44.0624 38.2401L39.7861 35.8882ZM42.5493 33.7664C42.3026 33.6349 42.1052 33.7006 41.9572 33.9803L41.3157 35.1316L42.171 35.6085L42.8124 34.4572C42.9605 34.1941 42.9111 33.9803 42.6644 33.8487L42.5493 33.7664ZM44.3914 34.5066C44.1447 34.375 43.9473 34.4408 43.7993 34.7204L43.0592 36.0855L43.9144 36.5625L44.6545 35.1974C44.8026 34.9342 44.7532 34.7204 44.5065 34.5888L44.3914 34.5066Z" fill="black"/>
<path d="M48.0597 27.1216L47.2703 31.3486L42.4512 30.4604L43.2407 26.2335L44.2111 26.4144L43.6847 29.2762L44.6222 29.4407L45.0334 27.1874L46.0038 27.3683L45.5926 29.6216L46.5959 29.8025L47.1222 26.9407L48.0597 27.1216Z" fill="black"/>
<path d="M47.9441 3.56905C47.9441 4.63813 47.1053 5.47694 46.0033 5.47694C44.9178 5.47694 44.0625 4.63813 44.0625 3.56905C44.0625 2.51642 44.9342 1.67761 46.0033 1.67761C47.1053 1.67761 47.9441 2.51642 47.9441 3.56905ZM44.5559 3.56905C44.5559 4.40787 45.1809 5.08221 46.0362 5.08221C46.8586 5.08221 47.4836 4.40786 47.4836 3.5855C47.4836 2.74668 46.875 2.07234 46.0362 2.07234C45.1645 2.05589 44.5559 2.73024 44.5559 3.56905ZM45.7072 4.55589H45.2632V2.66445C45.4276 2.63155 45.6743 2.6151 45.9868 2.6151C46.3487 2.6151 46.5131 2.66445 46.6447 2.74668C46.7434 2.82892 46.8257 2.97695 46.8257 3.15787C46.8257 3.37168 46.6612 3.51971 46.4309 3.60194V3.61839C46.6118 3.68418 46.727 3.83221 46.7763 4.07892C46.8421 4.37497 46.875 4.49011 46.9079 4.55589H46.4309C46.3816 4.49011 46.3322 4.30918 46.2829 4.09537C46.25 3.88155 46.1349 3.79931 45.8882 3.79931H45.6743V4.55589H45.7072ZM45.7237 3.48682H45.9375C46.1842 3.48682 46.3816 3.40458 46.3816 3.20721C46.3816 3.02629 46.25 2.91116 45.9704 2.91116C45.8553 2.91116 45.773 2.9276 45.7237 2.9276V3.48682Z" fill="black"/>
</g>
</g>
<defs>
<clipPath id="clip0_1080_2260">
<rect width="50" height="50" fill="white"/>
</clipPath>
</defs>
</svg>
