<svg width="50" height="50" viewBox="0 0 50 50" fill="none" xmlns="http://www.w3.org/2000/svg">
<g clip-path="url(#clip0_535_2100)">
<path d="M12.3521 25.9046L12.8784 26.8586L18.783 23.6184L18.8652 23.5691C18.7007 23.2401 18.5692 22.9112 18.4211 22.5658L18.3225 22.6151L12.3521 25.9046Z" fill="white"/>
<path d="M19.4573 33.4375L20.2961 34.1447L24.0625 29.6711C24.0296 29.6546 24.0296 29.6546 24.0625 29.6711L24.0954 29.6382C23.7994 29.4243 23.5033 29.2105 23.2073 28.9803L23.1908 28.9967L19.4573 33.4375Z" fill="white"/>
<path d="M20.2631 25.9375L17.8289 27.7961L18.5525 28.6678L20.9539 26.8092C20.9045 26.7599 20.8552 26.6941 20.8058 26.6447C20.6085 26.398 20.4111 26.1513 20.2631 25.9375Z" fill="white"/>
<path d="M26.6118 31.0855C26.5954 31.0855 26.5954 31.0691 26.5789 31.0691L24.5559 34.6711L25.5099 35.1974L27.5987 31.4803L27.6151 31.4474C27.3849 31.3651 27.1546 31.2829 26.9408 31.1842C26.8256 31.1349 26.7105 31.0855 26.6118 31.0362L26.5954 31.0855C26.5789 31.0855 26.5954 31.0855 26.6118 31.0855Z" fill="white"/>
<path d="M27.0395 24.4408C26.4638 24.0954 25.9868 23.6184 25.6579 23.0428L20.9375 26.7928C20.9539 26.8092 20.9704 26.8421 21.0033 26.8585C21.0362 26.8914 21.0526 26.9243 21.0855 26.9572C21.1513 27.023 21.2007 27.0888 21.2664 27.1546C21.2993 27.2039 21.3487 27.2368 21.398 27.2862C21.4474 27.3355 21.4967 27.3849 21.5461 27.4507C21.6118 27.5164 21.6776 27.5822 21.7434 27.648C21.7763 27.6809 21.7928 27.6974 21.8257 27.7303C21.8586 27.7631 21.875 27.7796 21.9079 27.8125C21.9737 27.8783 22.0395 27.9441 22.1053 28.0099C22.1546 28.0592 22.2039 28.1086 22.2533 28.1579C22.3026 28.1908 22.3355 28.2401 22.3849 28.2895C22.4507 28.3553 22.5164 28.4046 22.5822 28.4704C22.6151 28.5033 22.648 28.5197 22.6645 28.5526C22.7467 28.6349 22.829 28.7007 22.9276 28.7664C22.9441 28.7829 22.9441 28.7829 22.9605 28.7993C23.0428 28.8651 23.125 28.9309 23.2237 28.9967L26.8257 24.7368L27.0395 24.4408Z" fill="white"/>
<path d="M20.2631 25.9375L20.5591 25.7072L25.2466 21.9901C25.1808 21.7105 25.1479 21.4145 25.1479 21.1349C25.1479 20.773 25.1973 20.4276 25.296 20.0987L19.0789 23.5033L18.8979 23.602C19.0624 23.9309 19.2269 24.2599 19.4078 24.5724C19.3914 24.5559 19.6874 25.1316 20.2631 25.9375Z" fill="white"/>
<path d="M26.6775 30.8881L30.0821 24.8191C29.7532 24.9178 29.3913 24.9671 29.0295 24.9671C28.717 24.9671 28.4209 24.9342 28.1413 24.8684L24.1282 29.6382C24.9176 30.1809 25.74 30.6414 26.6282 31.0362L26.6775 30.8881Z" fill="white"/>
<path d="M40.9374 25C40.9374 24.8684 40.9374 24.7368 40.9374 24.6053C40.9374 24.5395 40.9374 24.4737 40.9374 24.4079C40.9374 24.3421 40.9374 24.2763 40.9374 24.2105C40.9374 24.1447 40.9374 24.0625 40.9209 23.9967C40.9209 23.9309 40.921 23.8651 40.9045 23.7993C40.9045 23.7336 40.8881 23.6842 40.8881 23.6184C40.8881 23.5526 40.8716 23.4704 40.8716 23.4046C40.8716 23.3553 40.8552 23.3224 40.8552 23.273C40.8387 23.1908 40.8387 23.0921 40.8223 23.0099C40.8223 22.9934 40.8223 22.9605 40.8058 22.9441C40.6249 21.4967 40.2466 20.0987 39.671 18.75C39.0624 17.3191 38.2565 15.9868 37.2696 14.7862C37.2532 14.7697 37.2367 14.7533 37.2203 14.7368C37.1545 14.6546 37.0887 14.5724 37.0229 14.4901C36.99 14.4572 36.9571 14.4079 36.9242 14.375C36.9242 14.375 36.9242 14.3585 36.9078 14.3585C36.8585 14.3092 36.8091 14.2434 36.7598 14.1941L36.7433 14.1776C36.694 14.1283 36.6446 14.0789 36.5953 14.0132C36.5624 13.9803 36.5295 13.9474 36.4966 13.898C36.4144 13.8158 36.3321 13.7336 36.2499 13.6349C36.2499 13.6349 36.2334 13.6184 36.2334 13.602C36.1841 13.5526 36.1348 13.5033 36.0854 13.4539C36.0361 13.4046 36.0032 13.3717 35.9538 13.3224C35.9209 13.2895 35.8881 13.2566 35.8387 13.2237C35.7729 13.1743 35.7236 13.1086 35.6578 13.0592C35.6084 13.0099 35.5427 12.9605 35.4769 12.9112C35.444 12.8783 35.3946 12.8454 35.3617 12.8125C35.2795 12.7467 35.1973 12.6809 35.1315 12.6151C35.115 12.5987 35.0986 12.5822 35.0657 12.5658C33.865 11.5789 32.5328 10.773 31.1019 10.1645C29.8519 9.63815 28.569 9.27632 27.2367 9.07895C27.1216 9.0625 27.0229 9.04605 26.9078 9.0296C26.8749 9.0296 26.8584 9.0296 26.8256 9.01315C26.7433 8.99671 26.6446 8.99671 26.5624 8.98026C26.5131 8.98026 26.4637 8.96381 26.4144 8.96381C26.3486 8.96381 26.2828 8.94737 26.2006 8.94737C26.1348 8.94737 26.069 8.93092 26.0032 8.93092C25.9374 8.93092 25.8881 8.93092 25.8223 8.91447C25.74 8.91447 25.6742 8.89802 25.592 8.89802C25.5262 8.89802 25.4604 8.89802 25.3946 8.88158C25.3288 8.88158 25.2631 8.88158 25.1973 8.88158C25.0657 8.88158 24.9341 8.88158 24.7861 8.88158H24.7696C24.6709 8.88158 24.5723 8.88158 24.4736 8.88158C24.4407 8.88158 24.4078 8.88158 24.3749 8.88158C24.2762 8.88158 24.1775 8.88158 24.0624 8.89802C24.0295 8.89802 23.9966 8.89802 23.9637 8.89802C23.865 8.89802 23.7828 8.91447 23.6841 8.91447C23.6512 8.91447 23.6019 8.91447 23.569 8.93092C23.4867 8.93092 23.4209 8.94737 23.3552 8.94737C23.2894 8.94737 23.24 8.96381 23.1742 8.96381C23.1249 8.96381 23.0756 8.98026 23.0262 8.98026C22.944 8.99671 22.8617 8.99671 22.7795 9.01315C22.7466 9.01315 22.7302 9.01315 22.6973 9.0296C21.2663 9.21052 19.8683 9.58882 18.5196 10.148C18.4374 10.1809 18.3716 10.2138 18.3058 10.2467C16.9571 10.8388 15.6907 11.6118 14.5558 12.5493C14.5394 12.5658 14.5065 12.5822 14.49 12.5987C14.4078 12.6645 14.342 12.7303 14.2598 12.796C14.2104 12.8289 14.1775 12.8783 14.1282 12.9112C14.0788 12.9605 14.0131 13.0099 13.9637 13.0592C13.8979 13.125 13.8321 13.1908 13.7499 13.2566C13.717 13.2895 13.7006 13.3059 13.6677 13.3388C13.569 13.421 13.4703 13.5197 13.3881 13.6184C13.3058 13.7171 13.2071 13.7993 13.1085 13.898C13.0756 13.9309 13.0591 13.9638 13.0262 13.9803C12.9604 14.0461 12.8946 14.1118 12.8453 14.1776C12.7959 14.227 12.7466 14.2763 12.6973 14.3421C12.6644 14.3914 12.615 14.4243 12.5821 14.4737C12.5163 14.5559 12.4506 14.6217 12.3848 14.7039C12.3683 14.7204 12.3519 14.7533 12.319 14.7697C12.2367 14.8684 12.1545 14.9671 12.0723 15.0658C11.1841 16.1842 10.4604 17.4013 9.90121 18.7171C9.3749 19.9507 9.01305 21.2335 8.81568 22.5493V22.5658C8.79924 22.6645 8.78279 22.7796 8.76634 22.8783C8.76634 22.9112 8.76635 22.9441 8.7499 22.9605C8.73345 23.0428 8.73345 23.125 8.717 23.2072C8.717 23.2566 8.70056 23.3059 8.70056 23.3553C8.70056 23.4211 8.68411 23.4868 8.68411 23.5526C8.68411 23.6184 8.66766 23.6842 8.66766 23.7664C8.66766 23.8158 8.66766 23.8816 8.65121 23.9309C8.65121 24.0132 8.63477 24.0954 8.63477 24.1776C8.63477 24.2434 8.63477 24.2928 8.63477 24.3585C8.63477 24.4408 8.63477 24.5066 8.63477 24.5888C8.63477 24.7204 8.63477 24.852 8.63477 24.9836C8.63477 25.1151 8.63477 25.2467 8.63477 25.3947C8.63477 25.4605 8.63477 25.5263 8.63477 25.6086C8.63477 25.6743 8.63477 25.7401 8.63477 25.8059C8.63477 25.8882 8.65121 25.9539 8.65121 26.0362C8.65121 26.102 8.65122 26.1513 8.66766 26.2007C8.66766 26.2664 8.68411 26.3322 8.68411 26.398C8.68411 26.4638 8.70056 26.5296 8.70056 26.5954C8.70056 26.6447 8.717 26.6941 8.717 26.7434C8.717 26.8257 8.73345 26.9079 8.7499 26.9901C8.7499 27.023 8.7499 27.0395 8.76634 27.0724C8.78279 27.171 8.79924 27.2862 8.81568 27.3849C8.81568 27.3849 8.81568 27.3849 8.81568 27.4013C9.01305 28.7171 9.3749 30 9.90121 31.25C10.5098 32.6809 11.3157 34.0132 12.3025 35.2138C12.319 35.2303 12.319 35.2467 12.3354 35.2467C12.4012 35.3289 12.4834 35.4112 12.5492 35.5099C12.5821 35.5428 12.5986 35.5757 12.6315 35.6085C12.6973 35.6743 12.7466 35.7401 12.8124 35.8059C12.8453 35.8553 12.8946 35.8882 12.944 35.9375C12.9933 35.9868 13.0427 36.0362 13.092 36.102C13.1578 36.1678 13.2236 36.2336 13.2894 36.2993C13.3223 36.3322 13.3387 36.3487 13.3716 36.3816C13.4045 36.4145 13.4209 36.4309 13.4538 36.4638C13.5196 36.5296 13.5854 36.5954 13.6512 36.6612C13.7006 36.7105 13.7499 36.7599 13.7992 36.8092C13.8486 36.8421 13.8815 36.8914 13.9308 36.9408C13.9966 37.0066 14.0624 37.0559 14.1282 37.1217C14.1611 37.1546 14.194 37.1711 14.2104 37.2039C14.2927 37.2862 14.3749 37.352 14.4736 37.4178C14.49 37.4342 14.49 37.4342 14.5065 37.4507C15.7071 38.4375 17.0394 39.2434 18.4703 39.852C19.819 40.4276 21.2335 40.8059 22.6808 40.9868C22.6973 40.9868 22.7302 40.9868 22.7466 40.9868C22.8453 41.0033 22.9275 41.0033 23.0262 41.0197C23.0591 41.0197 23.1085 41.0362 23.1413 41.0362C23.2236 41.0362 23.3058 41.0526 23.3716 41.0526C23.4209 41.0526 23.4867 41.0691 23.5361 41.0691C23.6019 41.0691 23.6841 41.0855 23.7499 41.0855C23.8157 41.0855 23.8815 41.0855 23.9308 41.102C24.0131 41.102 24.1117 41.102 24.194 41.1184C24.2433 41.1184 24.2762 41.1184 24.3256 41.1184C24.4571 41.1184 24.5887 41.1184 24.7367 41.1184H24.7532H24.7696C24.9012 41.1184 25.0328 41.1184 25.1644 41.1184C25.2302 41.1184 25.3124 41.1184 25.3782 41.1184C25.444 41.1184 25.5098 41.1184 25.5591 41.1184C25.6413 41.1184 25.7236 41.102 25.7894 41.102C25.8387 41.102 25.9045 41.102 25.9538 41.0855C26.0196 41.0855 26.0854 41.0691 26.1512 41.0691C26.217 41.0691 26.2828 41.0526 26.3486 41.0526C26.3979 41.0526 26.4308 41.0362 26.4802 41.0362C26.5624 41.0197 26.6611 41.0197 26.7433 41.0033C26.7598 41.0033 26.7762 41.0033 26.8091 41.0033C28.2565 40.8224 29.6545 40.4441 31.0032 39.8849C32.4506 39.2763 33.7828 38.4704 34.9835 37.4836L34.9999 37.4671C35.0986 37.3849 35.1808 37.3191 35.2795 37.2368C35.2959 37.2204 35.3288 37.1875 35.3617 37.171C35.444 37.1053 35.5098 37.0395 35.5756 36.9737C35.6084 36.9408 35.6413 36.9079 35.6907 36.875C35.7565 36.8257 35.8058 36.7599 35.8716 36.7105C35.9045 36.6776 35.9538 36.6283 35.9867 36.5954C36.0361 36.546 36.1019 36.4967 36.1512 36.4309C36.2006 36.3816 36.2499 36.3322 36.2992 36.2664C36.3321 36.2171 36.3815 36.1842 36.4308 36.1349C36.4802 36.0691 36.5459 36.0197 36.5953 35.9539C36.6282 35.921 36.6611 35.8882 36.694 35.8388C36.7598 35.773 36.8256 35.6908 36.8913 35.625C36.9078 35.6085 36.9407 35.5757 36.9571 35.5428C37.0394 35.4605 37.1052 35.3618 37.1874 35.2796C37.1874 35.2632 37.2038 35.2632 37.2038 35.2467C38.1907 34.046 39.0131 32.7303 39.6216 31.2829C39.6381 31.2336 39.6709 31.1678 39.6874 31.1184C40.2137 29.8191 40.5756 28.4868 40.7565 27.1053C40.7565 27.0888 40.7565 27.0559 40.7729 27.0395C40.7894 26.9572 40.7894 26.8585 40.8058 26.7763C40.8058 26.727 40.8223 26.6941 40.8223 26.6447C40.8223 26.5789 40.8387 26.4967 40.8387 26.4309C40.8387 26.3651 40.8552 26.3158 40.8552 26.25C40.8552 26.1842 40.8552 26.1184 40.8716 26.0691C40.8716 26.0033 40.8881 25.9211 40.8881 25.8553C40.8881 25.7895 40.8881 25.7072 40.8881 25.6414C40.8881 25.5757 40.8881 25.5263 40.8881 25.4605C40.9374 25.2632 40.9374 25.1316 40.9374 25ZM38.2894 31.5954C38.2729 31.6118 38.2729 31.6447 38.2565 31.6612C38.24 31.6941 38.2236 31.727 38.2071 31.7599C38.1907 31.7928 38.1742 31.8257 38.1578 31.8586C38.092 31.9737 38.0427 32.0888 37.9769 32.1875C37.9604 32.2368 37.9275 32.2697 37.9111 32.3191C37.8782 32.3684 37.8453 32.4178 37.8124 32.4835C37.7795 32.5329 37.7631 32.5658 37.7302 32.6151C37.6973 32.6645 37.6644 32.7138 37.6315 32.7632C37.5986 32.8125 37.5821 32.8454 37.5492 32.8947C37.5163 32.9441 37.4835 32.9934 37.4506 33.0428C37.4177 33.0921 37.3848 33.1414 37.3519 33.1908C37.319 33.2401 37.2861 33.2895 37.2532 33.3388C37.2203 33.3882 37.1874 33.4375 37.1545 33.4868C37.1216 33.5362 37.0887 33.5691 37.0558 33.6184C37.0065 33.6842 36.9571 33.75 36.9078 33.8158C36.8749 33.8651 36.8256 33.9309 36.7927 33.9803C36.7433 34.046 36.7104 34.0954 36.6611 34.1612C36.6282 34.1941 36.5953 34.2434 36.5624 34.2763C36.5295 34.3257 36.4802 34.375 36.4308 34.4243C36.3979 34.4572 36.365 34.5066 36.3321 34.5395C36.2992 34.5888 36.2499 34.6382 36.2006 34.6875C36.1677 34.7204 36.1348 34.7697 36.1019 34.8026C36.0525 34.852 36.0196 34.9013 35.9703 34.9507C35.9374 34.9835 35.9045 35.0329 35.8716 35.0658C35.8223 35.1151 35.7729 35.1645 35.7236 35.2303C35.6907 35.2632 35.6578 35.296 35.6249 35.3289C35.5591 35.3947 35.4933 35.477 35.4111 35.5428C35.3946 35.5592 35.3946 35.5592 35.3782 35.5757C32.5328 38.4046 28.7663 39.9507 24.7532 39.9507H24.7367C24.6052 39.9507 24.4736 39.9507 24.342 39.9507C24.342 39.9507 24.342 39.9507 24.3256 39.9507C20.4604 39.852 16.842 38.2895 14.0953 35.5428C11.4473 32.8947 9.91766 29.4408 9.72029 25.7401C9.72029 25.7237 9.72029 25.7237 9.72029 25.7072C9.72029 25.6085 9.72029 25.5099 9.70384 25.3947C9.70384 25.3618 9.70384 25.3454 9.70384 25.3125C9.70384 25.2138 9.70384 25.0987 9.70384 25C9.70384 24.9835 9.70384 24.9507 9.70384 24.9342C9.70384 20.9375 11.2828 17.1711 14.1282 14.3421C14.2104 14.2599 14.2927 14.1776 14.3749 14.0954C14.4078 14.0625 14.4242 14.046 14.4571 14.0296C14.5229 13.9803 14.5723 13.9145 14.6381 13.8651C14.6709 13.8322 14.7038 13.8158 14.7367 13.7829C14.8025 13.7335 14.8519 13.6842 14.9012 13.6349C14.9341 13.602 14.967 13.5855 14.9834 13.5526C15.0492 13.4868 15.115 13.4375 15.1973 13.3717C15.2137 13.3553 15.2302 13.3388 15.2466 13.3224C15.3288 13.2566 15.4275 13.1743 15.5098 13.1086C15.5427 13.0921 15.5591 13.0592 15.592 13.0428C15.6578 12.9934 15.7071 12.9441 15.7729 12.9112C15.8058 12.8783 15.8387 12.8618 15.8881 12.8289C15.9374 12.7961 16.0032 12.7467 16.0525 12.7138C16.0854 12.6809 16.1348 12.6645 16.1677 12.6316C16.2334 12.5987 16.2828 12.5493 16.3486 12.5C16.3815 12.4836 16.4144 12.4507 16.4473 12.4342C16.5295 12.3684 16.6282 12.3191 16.7104 12.2533C16.7433 12.2368 16.7762 12.2039 16.8091 12.1875C16.8749 12.1546 16.9242 12.1053 16.99 12.0724C17.0394 12.0395 17.0723 12.023 17.1216 11.9901C17.1709 11.9572 17.2367 11.9243 17.2861 11.8914C17.3354 11.875 17.3683 11.8421 17.4177 11.8092C17.467 11.7763 17.5328 11.7434 17.5821 11.7105C17.6315 11.6941 17.6644 11.6612 17.7137 11.6447C17.7137 11.6447 17.7302 11.6447 17.7302 11.6283C17.7959 11.5954 17.8782 11.5461 17.944 11.5132C18.0756 11.4474 18.1907 11.3816 18.3223 11.3322C17.6808 13.0263 17.3354 14.8684 17.3354 16.7763C17.3354 18.7829 17.7137 20.7237 18.4045 22.4836L19.1775 22.0559L26.5131 18.0428C27.4177 17.5 28.0427 17.1546 28.9802 17.1546C31.1183 17.1546 32.8453 18.8816 32.8453 21.0197C32.8453 21.9079 32.5163 22.5987 32.0229 23.3882L27.9604 30.6414L27.5657 31.3322C28.7006 31.7599 29.8848 32.0395 31.0854 32.2039C31.1019 32.2039 31.1348 32.2039 31.1512 32.2039C31.2499 32.2204 31.3321 32.2204 31.4308 32.2368C31.4637 32.2368 31.5131 32.2533 31.5459 32.2533C31.6282 32.2533 31.7104 32.2697 31.7762 32.2697C31.8091 32.2697 31.842 32.2697 31.8749 32.2862C32.2038 32.3026 32.5328 32.3191 32.8782 32.3191H32.8946C33.0098 32.3191 33.1413 32.3191 33.2565 32.3191C33.3058 32.3191 33.3387 32.3191 33.3881 32.3191C33.4703 32.3191 33.5525 32.3191 33.6348 32.3026C33.6841 32.3026 33.7335 32.3026 33.7828 32.3026C33.865 32.3026 33.9308 32.3026 34.0131 32.2862C34.0624 32.2862 34.1282 32.2862 34.1775 32.2697C34.2433 32.2697 34.3256 32.2533 34.3913 32.2533C34.4407 32.2533 34.5065 32.2368 34.5558 32.2368C34.6216 32.2368 34.7038 32.2204 34.7696 32.2039C34.819 32.2039 34.8683 32.1875 34.9341 32.1875C35.0163 32.1711 35.0986 32.171 35.1644 32.1546C35.2137 32.1546 35.2466 32.1382 35.2959 32.1382C35.4111 32.1217 35.5262 32.1053 35.6413 32.0724C35.6907 32.0724 35.74 32.0559 35.7894 32.0395C35.8552 32.023 35.9374 32.0066 36.0032 32.0066C36.0525 31.9901 36.1183 31.9737 36.1677 31.9737C36.2335 31.9572 36.2992 31.9408 36.3486 31.9408C36.4144 31.9243 36.4637 31.9079 36.5295 31.9079C36.5953 31.8914 36.6446 31.875 36.7104 31.8586C36.7762 31.8421 36.8256 31.8257 36.8913 31.8092C36.9407 31.7928 37.0065 31.7763 37.0558 31.7599C37.1216 31.7434 37.171 31.727 37.2367 31.7105C37.3025 31.6941 37.3519 31.6776 37.4012 31.6612C37.467 31.6447 37.5163 31.6283 37.5821 31.6118C37.6479 31.5954 37.6973 31.5789 37.7466 31.5625C37.8617 31.5296 37.9604 31.4803 38.0756 31.4474C38.1249 31.4309 38.1742 31.4145 38.2236 31.398C38.3223 31.5132 38.3058 31.546 38.2894 31.5954Z" fill="white"/>
<path d="M10.181 13.6184C9.65464 14.6546 9.21055 15.4934 8.81581 16.1513C8.55266 16.579 8.27306 16.8421 7.96056 16.9408C7.64806 17.0395 7.30266 16.9572 6.90792 16.727L5.00003 15.5757C4.5724 15.329 4.34213 15.0329 4.27634 14.704C4.21055 14.375 4.32569 13.9803 4.60529 13.5197L6.05266 11.1349L6.89148 11.6447L5.59213 13.7665C5.42766 14.0296 5.477 14.2434 5.70727 14.375L7.63161 15.5263C7.73029 15.5757 7.81252 15.5921 7.91121 15.5757C7.99344 15.5428 8.07569 15.4934 8.12503 15.3947C8.17437 15.2961 8.24016 15.1974 8.30595 15.0822C8.37174 14.9671 8.43753 14.852 8.50332 14.7368C8.56911 14.6217 8.6349 14.4901 8.71713 14.375C8.78292 14.2434 8.8816 14.0954 8.98029 13.8816C9.07897 13.6842 9.21055 13.4375 9.37503 13.1415L10.181 13.6184Z" fill="white"/>
<path d="M8.58545 8.32237L11.7269 5.72369L14.2269 8.73356L14.671 8.35527L15.8716 9.80264L14.8519 10.6415L14.2105 10L11.8749 11.9408L12.4012 12.6809L11.3815 13.5197L10.1808 12.0724L10.5756 11.7434C10.592 11.5296 10.5756 11.3322 10.5098 11.1349C10.444 10.9375 10.3618 10.773 10.2631 10.6415L8.58545 8.32237ZM13.1578 9.62171L11.2828 7.36842L10.1808 8.28948L11.2006 9.70395C11.365 9.93421 11.4966 10.1974 11.5624 10.5099C11.5953 10.6415 11.6118 10.7566 11.6282 10.8882L13.1578 9.62171Z" fill="white"/>
<path d="M20.625 7.03948L16.5789 8.53619L14.8684 3.96382L18.9145 2.46711L19.2598 3.38816L16.5296 4.39145L16.8585 5.27961L19.0131 4.49013L19.3585 5.41119L17.2039 6.20066L17.5493 7.15461L20.2796 6.15132L20.625 7.03948Z" fill="white"/>
<path d="M23.273 6.51316C23.0592 6.71053 22.8125 6.80921 22.5 6.82566C22.1875 6.82566 21.8914 6.80921 21.6283 6.77632L21.6118 5.83882L21.9572 5.82237C22.0559 5.82237 22.1381 5.78947 22.2039 5.72368C22.2697 5.65789 22.3026 5.59211 22.3026 5.49342L22.4506 1.85855L26.7598 1.75987L26.875 6.64474L25.4769 6.67763L25.3783 2.76316L23.75 2.79605L23.6184 5.69079C23.5855 6.05263 23.4704 6.31579 23.273 6.51316Z" fill="white"/>
<path d="M29.4408 7.22039L27.9934 6.74342L31.4967 2.74671L32.977 3.24013L33.3881 8.51973L31.9408 8.04276L31.875 7.10526L30.0329 6.49671L29.4408 7.22039ZM30.6743 5.74013L31.8585 6.13487L31.7763 4.39145L30.6743 5.74013Z" fill="white"/>
<path d="M38.1249 12.0395L37.0229 11.1842L38.2565 9.62171L36.7269 8.4375L35.4933 10L34.3914 9.14474L37.4012 5.29606L38.5032 6.15132L37.319 7.66448L38.8486 8.84869L40.0328 7.33553L41.1348 8.19079L38.1249 12.0395Z" fill="white"/>
<path d="M42.9934 16.7105C42.5822 16.9737 42.2039 17.0559 41.8914 16.9737C41.5789 16.8914 41.2664 16.6118 40.9703 16.1513L39.9341 14.5066C39.6381 14.0461 39.523 13.6513 39.5887 13.3224C39.6381 12.9934 39.8848 12.6974 40.296 12.4507L42.1874 11.2664C42.5986 11.0033 42.9769 10.9211 43.2894 11.0033C43.6019 11.0855 43.9144 11.3651 44.2105 11.8257L45.2466 13.4704C45.5427 13.9309 45.6578 14.3257 45.592 14.6382C45.5427 14.9671 45.296 15.2632 44.8848 15.5263L42.9934 16.7105ZM44.1447 14.3421C44.3749 14.1941 44.4078 13.9803 44.2433 13.7171L43.5361 12.5987C43.3716 12.3355 43.1743 12.2862 42.9276 12.4342L41.0361 13.6184C40.8058 13.7664 40.773 13.9803 40.9374 14.2434L41.6447 15.3618C41.8091 15.625 42.0065 15.6743 42.2532 15.5263L44.1447 14.3421Z" fill="white"/>
<path d="M6.26643 26.2171L6.82564 29.2599C6.92433 29.7533 6.87499 30.148 6.72696 30.4112C6.56249 30.6743 6.28288 30.8553 5.85524 30.9375C5.57564 30.9868 5.34538 30.9704 5.14801 30.8553C4.95064 30.7566 4.80262 30.6086 4.68749 30.4276C4.67104 30.8553 4.47367 31.1842 4.09538 31.398C3.9638 31.4803 3.79933 31.5296 3.61841 31.5625C3.17433 31.6447 2.81248 31.5954 2.56577 31.398C2.31906 31.2007 2.13815 30.8553 2.03946 30.3618L1.43091 27.0888L6.26643 26.2171ZM3.58551 30.1809C3.86511 30.1316 3.9638 29.9507 3.91446 29.6546L3.63485 28.125L2.66446 28.3059L2.94407 29.8355C2.99341 30.1316 3.15788 30.2632 3.43749 30.2138L3.58551 30.1809ZM5.46051 29.6053C5.74012 29.5559 5.8388 29.375 5.78946 29.0789L5.54275 27.7796L4.57235 27.9605L4.81906 29.2599C4.8684 29.5559 5.04933 29.6875 5.31248 29.6382L5.46051 29.6053Z" fill="white"/>
<path d="M11.6117 37.9441C11.6939 38.0428 11.8255 38.2401 11.99 38.5362L11.2499 39.1283L11.0525 38.8816C11.0032 38.8158 10.9374 38.7829 10.8716 38.7665C10.8058 38.75 10.74 38.7336 10.6742 38.75L9.22684 38.9638L8.24 41.6941L7.31895 40.5428L8.12487 38.3553L7.68079 37.8125L6.11829 39.0625L5.24658 37.977L9.06236 34.9178L9.93408 36.0033L8.43737 37.204L8.88145 37.7467L10.411 37.5164C10.6413 37.4836 10.8551 37.5 11.0525 37.5493C11.2499 37.5987 11.4472 37.7303 11.6117 37.9441Z" fill="white"/>
<path d="M15.0659 44.9178C14.8027 45.3289 14.5067 45.5592 14.1778 45.6086C13.8488 45.6579 13.4541 45.5428 12.9935 45.2467L11.3488 44.2105C10.8883 43.9145 10.6087 43.6184 10.5264 43.2895C10.4442 42.977 10.5264 42.5987 10.7896 42.1875L11.9903 40.3125C12.2534 39.9013 12.5495 39.6711 12.8784 39.6217C13.2074 39.5724 13.6021 39.6875 14.0626 39.9836L15.7074 41.0362C16.1679 41.3322 16.4475 41.6283 16.5297 41.9572C16.612 42.2697 16.5297 42.648 16.2666 43.0592L15.0659 44.9178ZM15.0988 42.2862C15.2468 42.0559 15.1975 41.8421 14.9343 41.6776L13.8159 40.9704C13.5528 40.8059 13.3389 40.8388 13.1909 41.0691L11.9903 42.9441C11.8422 43.1743 11.8916 43.3882 12.1547 43.5526L13.2731 44.2599C13.5363 44.4243 13.7337 44.3915 13.8981 44.1612L15.0988 42.2862Z" fill="white"/>
<path d="M18.2236 42.4013L21.3979 43.1579C21.9242 43.2895 22.2861 43.4868 22.467 43.75C22.6479 44.0132 22.6973 44.3914 22.5821 44.8684L22.4177 45.5428C22.3025 46.0197 22.1052 46.3322 21.8091 46.4967C21.5131 46.6612 21.1019 46.6776 20.5756 46.5461L18.7663 46.1184L18.4374 47.4671L17.0723 47.1382L18.2236 42.4013ZM21.2334 44.5395C21.2992 44.2599 21.1841 44.0954 20.8716 44.0296L19.3585 43.6678L18.9966 45.1645L20.5098 45.5263C20.8058 45.5921 21.0032 45.4934 21.0525 45.2303L21.2334 44.5395Z" fill="white"/>
<path d="M29.3914 46.6447C29.4408 47.1382 29.3421 47.5 29.1283 47.7303C28.898 47.977 28.5197 48.125 27.977 48.1743L26.0362 48.3553C25.4934 48.4046 25.0822 48.3388 24.8191 48.1415C24.5559 47.9441 24.3914 47.5987 24.3421 47.1217L24.1283 44.9013C24.0789 44.4079 24.1612 44.0461 24.3914 43.8158C24.6217 43.5691 25 43.4211 25.5427 43.3717L27.4835 43.1908C28.0263 43.1414 28.4375 43.2072 28.7006 43.4046C28.9638 43.602 29.1283 43.9474 29.1776 44.4243L29.3914 46.6447ZM27.7796 44.5559C27.7467 44.2763 27.5822 44.1612 27.2697 44.1776L25.9539 44.3092C25.6414 44.3421 25.5099 44.4901 25.5263 44.7697L25.7401 46.9901C25.773 47.2697 25.9375 47.3849 26.25 47.3684L27.5658 47.2368C27.8783 47.204 28.0099 47.0559 27.9934 46.7763L27.7796 44.5559Z" fill="white"/>
<path d="M33.4539 46.4309C33.3388 46.6941 33.1414 46.8915 32.8618 47.023C32.5822 47.1546 32.3026 47.2533 32.0395 47.3355L31.6447 46.4803L31.9572 46.3322C32.0395 46.2993 32.1053 46.2336 32.1382 46.1513C32.171 46.0691 32.171 45.9868 32.1382 45.9046L30.8059 42.5164L34.7204 40.6908L36.7928 45.1151L35.5263 45.7072L33.8651 42.1711L32.3849 42.8618L33.4375 45.5757C33.5526 45.8882 33.5691 46.1678 33.4539 46.4309Z" fill="white"/>
<path d="M35.4111 38.3553L36.3651 37.4507L37.0394 38.1579L36.0855 39.0625L35.4111 38.3553ZM42.4342 40.3947L39.2927 43.3553L35.921 39.8026L39.0625 36.8421L39.7368 37.5493L37.6151 39.5395L38.273 40.2303L39.9342 38.6678L40.6085 39.375L38.9473 40.9375L39.6381 41.6776L41.7598 39.6875L42.4342 40.3947ZM36.7105 37.1382L37.6644 36.2336L38.3388 36.9408L37.3848 37.8454L36.7105 37.1382Z" fill="white"/>
<path d="M39.7861 35.8882L41.2828 33.1743C41.5295 32.7303 41.7927 32.4507 42.0888 32.352C42.3848 32.2533 42.7138 32.2862 43.092 32.5C43.3388 32.6316 43.5032 32.7961 43.5855 33.0099C43.6677 33.2072 43.7006 33.4211 43.6677 33.6184C43.9638 33.3059 44.3256 33.1743 44.7368 33.2237C44.8848 33.2566 45.0493 33.3059 45.2138 33.3882C45.6085 33.602 45.8552 33.8651 45.921 34.1776C46.0032 34.4901 45.9046 34.8684 45.6743 35.3125L44.0624 38.2401L39.7861 35.8882ZM42.5493 33.7664C42.3026 33.6349 42.1052 33.7006 41.9572 33.9803L41.3157 35.1316L42.171 35.6085L42.8124 34.4572C42.9605 34.1941 42.9111 33.9803 42.6644 33.8487L42.5493 33.7664ZM44.3914 34.5066C44.1447 34.375 43.9473 34.4408 43.7993 34.7204L43.0592 36.0855L43.9144 36.5625L44.6545 35.1974C44.8026 34.9342 44.7532 34.7204 44.5065 34.5888L44.3914 34.5066Z" fill="white"/>
<path d="M48.0592 27.1217L47.2698 31.3487L42.4507 30.4605L43.2402 26.2336L44.2106 26.4145L43.6842 29.2763L44.6217 29.4408L45.0329 27.1875L46.0033 27.3684L45.5921 29.6217L46.5954 29.8026L47.1217 26.9408L48.0592 27.1217Z" fill="white"/>
<path d="M47.9441 3.56908C47.9441 4.63816 47.1053 5.47697 46.0033 5.47697C44.9178 5.47697 44.0625 4.63816 44.0625 3.56908C44.0625 2.51645 44.9342 1.67764 46.0033 1.67764C47.1053 1.67764 47.9441 2.51645 47.9441 3.56908ZM44.5559 3.56908C44.5559 4.4079 45.1809 5.08224 46.0362 5.08224C46.8586 5.08224 47.4836 4.40789 47.4836 3.58553C47.4836 2.74671 46.875 2.07237 46.0362 2.07237C45.1645 2.05592 44.5559 2.73027 44.5559 3.56908ZM45.7072 4.55592H45.2632V2.66448C45.4276 2.63158 45.6743 2.61513 45.9868 2.61513C46.3487 2.61513 46.5131 2.66448 46.6447 2.74671C46.7434 2.82895 46.8257 2.97698 46.8257 3.1579C46.8257 3.37171 46.6612 3.51974 46.4309 3.60197V3.61842C46.6118 3.68421 46.727 3.83224 46.7763 4.07895C46.8421 4.375 46.875 4.49014 46.9079 4.55592H46.4309C46.3816 4.49014 46.3322 4.30921 46.2829 4.0954C46.25 3.88158 46.1349 3.79934 45.8882 3.79934H45.6743V4.55592H45.7072ZM45.7237 3.48685H45.9375C46.1842 3.48685 46.3816 3.40461 46.3816 3.20724C46.3816 3.02632 46.25 2.91119 45.9704 2.91119C45.8553 2.91119 45.773 2.92763 45.7237 2.92763V3.48685Z" fill="white"/>
</g>
<defs>
<clipPath id="clip0_535_2100">
<rect width="50" height="50" fill="white"/>
</clipPath>
</defs>
</svg>
