<svg width="46" height="46" viewBox="0 0 46 46" fill="none" xmlns="http://www.w3.org/2000/svg">
<rect y="1.41467" width="45.2692" height="42.4399" rx="21.22" fill="white"/>
<path d="M26.0363 22.0109C25.2219 21.5223 24.5472 20.8476 24.0818 20.0332L17.4041 25.3382C17.4273 25.3615 17.4506 25.408 17.4971 25.4313C17.5437 25.4778 17.5669 25.5243 17.6135 25.5709C17.7065 25.6639 17.7763 25.757 17.8694 25.8501C17.9159 25.9199 17.9857 25.9664 18.0555 26.0362C18.1253 26.106 18.1952 26.1758 18.265 26.2689C18.358 26.362 18.4511 26.455 18.5442 26.5481C18.5907 26.5946 18.614 26.6179 18.6605 26.6644C18.707 26.711 18.7303 26.7342 18.7768 26.7808C18.8699 26.8738 18.963 26.9669 19.0561 27.06C19.1259 27.1298 19.1956 27.1996 19.2655 27.2694C19.3353 27.3159 19.3818 27.3857 19.4516 27.4555C19.5447 27.5486 19.6377 27.6184 19.7308 27.7115C19.7773 27.758 19.8239 27.7813 19.8471 27.8278C19.9635 27.9442 20.0798 28.0372 20.2194 28.1303C20.2427 28.1536 20.2427 28.1536 20.266 28.1768C20.3823 28.2699 20.4986 28.363 20.6382 28.456L25.7338 22.4298L26.0363 22.0109Z" fill="black"/>
<path d="M16.45 24.1285L16.8688 23.8027L23.5 18.5443C23.407 18.1487 23.3604 17.7299 23.3604 17.3344C23.3604 16.8225 23.4302 16.3339 23.5698 15.8685L14.7747 20.6849L14.5188 20.8245C14.7515 21.2899 14.9841 21.7552 15.2401 22.1973C15.2168 22.174 15.6356 22.9884 16.45 24.1285Z" fill="black"/>
<path d="M25.5244 31.1318L30.3408 22.5461C29.8755 22.6857 29.3636 22.7555 28.8517 22.7555C28.4096 22.7555 27.9908 22.709 27.5952 22.6159L21.918 29.3635C23.0348 30.1313 24.1982 30.7828 25.4546 31.3413L25.5244 31.1318Z" fill="black"/>
<path d="M45.6974 22.8021C45.6974 22.616 45.6974 22.4299 45.6974 22.2437C45.6974 22.1507 45.6974 22.0576 45.6974 21.9645C45.6974 21.8715 45.6974 21.7784 45.6974 21.6853C45.6974 21.5922 45.6974 21.4759 45.6741 21.3828C45.6741 21.2898 45.6741 21.1967 45.6508 21.1036C45.6508 21.0106 45.6276 20.9407 45.6276 20.8477C45.6276 20.7546 45.6043 20.6383 45.6043 20.5452C45.6043 20.4754 45.581 20.4289 45.581 20.3591C45.5578 20.2427 45.5578 20.1031 45.5345 19.9868C45.5345 19.9635 45.5345 19.917 45.5112 19.8937C45.2553 17.8462 44.7201 15.8684 43.9058 13.9605C43.0449 11.9362 41.9048 10.0516 40.5087 8.35304C40.4854 8.32977 40.4622 8.30649 40.4389 8.28322C40.3458 8.16689 40.2528 8.05055 40.1597 7.93421C40.1132 7.88768 40.0666 7.81788 40.0201 7.77135C40.0201 7.77135 40.0201 7.74807 39.9968 7.74807C39.927 7.67827 39.8572 7.5852 39.7874 7.5154L39.7642 7.49214C39.6944 7.42233 39.6245 7.35253 39.5547 7.25946C39.5082 7.21293 39.4617 7.16639 39.4151 7.09659C39.2988 6.98025 39.1825 6.86392 39.0661 6.72431C39.0661 6.72431 39.0429 6.70104 39.0429 6.67777C38.973 6.60797 38.9033 6.53816 38.8335 6.46836C38.7637 6.39856 38.7171 6.35203 38.6473 6.28222C38.6008 6.23569 38.5542 6.18916 38.4844 6.14262C38.3914 6.07282 38.3216 5.97975 38.2285 5.90995C38.1587 5.84015 38.0656 5.77034 37.9726 5.70054C37.926 5.654 37.8562 5.60747 37.8097 5.56094C37.6933 5.46787 37.577 5.37479 37.4839 5.28172C37.4607 5.25846 37.4374 5.23519 37.3909 5.21192C35.6923 3.81588 33.8077 2.67576 31.7834 1.81486C30.0151 1.0703 28.2002 0.558423 26.3155 0.279213C26.1527 0.255945 26.0131 0.232674 25.8502 0.209406C25.8036 0.209406 25.7804 0.209405 25.7338 0.186137C25.6175 0.16287 25.4779 0.162874 25.3616 0.139606C25.2918 0.139606 25.222 0.116337 25.1522 0.116337C25.0591 0.116337 24.966 0.0930686 24.8497 0.0930686C24.7566 0.0930686 24.6635 0.0697996 24.5705 0.0697996C24.4774 0.0697996 24.4076 0.0698053 24.3145 0.0465378C24.1982 0.0465378 24.1051 0.0232689 23.9888 0.0232689C23.8957 0.0232689 23.8027 0.0232675 23.7096 0C23.6165 0 23.5234 0 23.4304 0C23.2442 0 23.0581 0 22.8487 0H22.8254C22.6858 0 22.5462 0 22.4066 0C22.3601 0 22.3135 0 22.267 0C22.1274 0 21.9878 1.41979e-06 21.8249 0.0232689C21.7784 0.0232689 21.7318 0.0232689 21.6853 0.0232689C21.5457 0.0232689 21.4294 0.0465378 21.2898 0.0465378C21.2432 0.0465378 21.1734 0.0465322 21.1269 0.0697996C21.0105 0.0697996 20.9175 0.0930686 20.8244 0.0930686C20.7313 0.0930686 20.6615 0.116337 20.5685 0.116337C20.4987 0.116337 20.4289 0.139606 20.3591 0.139606C20.2427 0.162874 20.1264 0.16287 20.01 0.186137C19.9635 0.186137 19.9402 0.186139 19.8937 0.209406C17.8694 0.465349 15.8917 1.00051 13.9838 1.7916C13.8674 1.83814 13.7744 1.88466 13.6813 1.9312C11.7733 2.76883 9.98176 3.8624 8.3763 5.18865C8.35303 5.21192 8.30649 5.23518 8.28322 5.25845C8.16688 5.35152 8.07382 5.44459 7.95749 5.53766C7.88768 5.5842 7.84115 5.654 7.77135 5.70054C7.70155 5.77034 7.60848 5.84015 7.53867 5.90995C7.4456 6.00302 7.35252 6.09608 7.23619 6.18915C7.18965 6.23568 7.16638 6.25895 7.11985 6.30549C6.98024 6.42182 6.84065 6.56143 6.72431 6.70104C6.60797 6.84064 6.46837 6.95698 6.32876 7.09659C6.28223 7.14312 6.25896 7.18966 6.21242 7.21292C6.11935 7.30599 6.02628 7.39907 5.95647 7.49214C5.88667 7.56194 5.81688 7.63174 5.74707 7.72481C5.70054 7.79461 5.63073 7.84115 5.5842 7.91095C5.49113 8.02729 5.39806 8.12036 5.30499 8.2367C5.28172 8.25997 5.25846 8.30649 5.21192 8.32976C5.09559 8.46937 4.97925 8.60897 4.86291 8.74857C3.60647 10.3308 2.58269 12.0526 1.7916 13.914C1.04704 15.659 0.535147 17.4739 0.255937 19.3353V19.3586C0.232669 19.4982 0.209405 19.661 0.186137 19.8006C0.186137 19.8472 0.186143 19.8937 0.162875 19.917C0.139608 20.0333 0.139605 20.1496 0.116337 20.266C0.116337 20.3358 0.0930757 20.4056 0.0930757 20.4754C0.0930757 20.5685 0.0697996 20.6615 0.0697996 20.7546C0.0697996 20.8477 0.0465378 20.9407 0.0465378 21.0571C0.0465378 21.1269 0.0465293 21.22 0.0232618 21.2898C0.0232618 21.4061 0 21.5224 0 21.6388C0 21.7318 0 21.8016 0 21.8947C0 22.011 0 22.1041 0 22.2205C0 22.4066 0 22.5927 0 22.7789C0 22.965 0 23.1512 0 23.3606C0 23.4536 0 23.5467 0 23.663C0 23.7561 0 23.8492 0 23.9423C0 24.0586 0.0232618 24.1517 0.0232618 24.268C0.0232618 24.3611 0.0232703 24.4309 0.0465378 24.5007C0.0465378 24.5937 0.0697996 24.6868 0.0697996 24.7799C0.0697996 24.873 0.0930757 24.966 0.0930757 25.0591C0.0930757 25.1289 0.116337 25.1987 0.116337 25.2685C0.116337 25.3848 0.139608 25.5012 0.162875 25.6175C0.162875 25.664 0.16287 25.6873 0.186137 25.7338C0.209405 25.8734 0.232669 26.0363 0.255937 26.1759C0.255937 26.1759 0.255937 26.1759 0.255937 26.1992C0.535147 28.0606 1.04704 29.8755 1.7916 31.6438C2.6525 33.6681 3.7926 35.5527 5.18865 37.2513C5.21192 37.2745 5.21192 37.2978 5.23519 37.2978C5.32826 37.4141 5.44459 37.5305 5.53766 37.6701C5.5842 37.7166 5.60746 37.7631 5.654 37.8097C5.74707 37.9028 5.81688 37.9958 5.90995 38.0889C5.95648 38.1587 6.02628 38.2052 6.09609 38.275C6.16589 38.3448 6.23568 38.4146 6.30549 38.5077C6.39856 38.6008 6.49163 38.6938 6.5847 38.7869C6.63123 38.8335 6.6545 38.8567 6.70104 38.9033C6.74757 38.9498 6.77084 38.9731 6.81737 39.0196C6.91044 39.1127 7.00352 39.2057 7.09659 39.2988C7.16639 39.3686 7.2362 39.4384 7.306 39.5082C7.3758 39.5547 7.42233 39.6245 7.49214 39.6943C7.58521 39.7874 7.67828 39.8572 7.77135 39.9503C7.81788 39.9968 7.86442 40.0201 7.88769 40.0666C8.00402 40.183 8.12036 40.276 8.25996 40.3691C8.28323 40.3924 8.28323 40.3924 8.3065 40.4156C10.005 41.8117 11.8897 42.9518 13.914 43.8127C15.8219 44.6271 17.8229 45.1622 19.8704 45.4182C19.8937 45.4182 19.9402 45.4182 19.9635 45.4182C20.1031 45.4414 20.2195 45.4414 20.3591 45.4647C20.4056 45.4647 20.4754 45.488 20.5219 45.488C20.6383 45.488 20.7546 45.5112 20.8477 45.5112C20.9175 45.5112 21.0105 45.5345 21.0803 45.5345C21.1734 45.5345 21.2898 45.5578 21.3828 45.5578C21.4759 45.5578 21.569 45.5578 21.6388 45.581C21.7551 45.581 21.8947 45.581 22.011 45.6043C22.0808 45.6043 22.1274 45.6043 22.1972 45.6043C22.3833 45.6043 22.5695 45.6043 22.7789 45.6043H22.8021H22.8254C23.0115 45.6043 23.1977 45.6043 23.3838 45.6043C23.4769 45.6043 23.5932 45.6043 23.6863 45.6043C23.7794 45.6043 23.8725 45.6043 23.9423 45.6043C24.0586 45.6043 24.1749 45.581 24.268 45.581C24.3378 45.581 24.4309 45.581 24.5007 45.5578C24.5937 45.5578 24.6868 45.5345 24.7799 45.5345C24.873 45.5345 24.966 45.5112 25.0591 45.5112C25.1289 45.5112 25.1754 45.488 25.2452 45.488C25.3616 45.4647 25.5012 45.4647 25.6175 45.4414C25.6408 45.4414 25.664 45.4414 25.7106 45.4414C27.7581 45.1855 29.7359 44.6503 31.6438 43.8592C33.6913 42.9983 35.576 41.8582 37.2745 40.4622L37.2978 40.4389C37.4374 40.3226 37.5537 40.2295 37.6933 40.1132C37.7166 40.0899 37.7631 40.0434 37.8097 40.0201C37.926 39.927 38.0191 39.834 38.1122 39.7409C38.1587 39.6943 38.2052 39.6478 38.275 39.6013C38.3681 39.5315 38.4379 39.4384 38.531 39.3686C38.5775 39.3221 38.6473 39.2523 38.6938 39.2057C38.7636 39.1359 38.8567 39.0661 38.9265 38.9731C38.9963 38.9033 39.0661 38.8335 39.1359 38.7404C39.1825 38.6706 39.2523 38.624 39.3221 38.5542C39.3919 38.4612 39.4849 38.3914 39.5547 38.2983C39.6013 38.2518 39.6478 38.2052 39.6943 38.1354C39.7874 38.0424 39.8805 37.926 39.9736 37.8329C39.9968 37.8097 40.0434 37.7631 40.0666 37.7166C40.183 37.6003 40.276 37.4607 40.3924 37.3443C40.3924 37.3211 40.4156 37.3211 40.4156 37.2978C41.8117 35.5993 42.9751 33.7379 43.836 31.6903C43.8592 31.6205 43.9058 31.5275 43.929 31.4577C44.6736 29.6195 45.1855 27.7349 45.4414 25.7804C45.4414 25.7571 45.4414 25.7106 45.4647 25.6873C45.488 25.571 45.4879 25.4314 45.5112 25.315C45.5112 25.2452 45.5345 25.1987 45.5345 25.1289C45.5345 25.0358 45.5578 24.9195 45.5578 24.8264C45.5578 24.7334 45.581 24.6635 45.581 24.5705C45.581 24.4774 45.581 24.3843 45.6043 24.3145C45.6043 24.2215 45.6276 24.1051 45.6276 24.0121C45.6276 23.919 45.6276 23.8027 45.6276 23.7096C45.6276 23.6165 45.6276 23.5467 45.6276 23.4536C45.6974 23.1744 45.6974 22.9883 45.6974 22.8021ZM41.9513 32.1324C41.928 32.1557 41.928 32.2022 41.9048 32.2255C41.8815 32.272 41.8582 32.3185 41.835 32.3651C41.8117 32.4116 41.7884 32.4582 41.7652 32.5047C41.6721 32.6676 41.6023 32.8304 41.5092 32.97C41.4859 33.0398 41.4394 33.0864 41.4161 33.1562C41.3696 33.226 41.3231 33.2958 41.2765 33.3889C41.23 33.4587 41.2067 33.5052 41.1602 33.575C41.1137 33.6448 41.0671 33.7146 41.0206 33.7844C40.9741 33.8542 40.9508 33.9007 40.9043 33.9705C40.8577 34.0403 40.8112 34.1102 40.7647 34.18C40.7181 34.2498 40.6716 34.3196 40.625 34.3894C40.5785 34.4592 40.532 34.529 40.4854 34.5988C40.4389 34.6686 40.3924 34.7384 40.3458 34.8082C40.2993 34.878 40.2528 34.9245 40.2062 34.9943C40.1364 35.0874 40.0666 35.1804 39.9968 35.2735C39.9503 35.3433 39.8805 35.4364 39.834 35.5062C39.7641 35.5993 39.7176 35.6691 39.6478 35.7621C39.6013 35.8087 39.5547 35.8785 39.5082 35.925C39.4617 35.9948 39.3919 36.0646 39.3221 36.1344C39.2755 36.181 39.229 36.2508 39.1825 36.2973C39.1359 36.3671 39.0661 36.4369 38.9963 36.5067C38.9498 36.5532 38.9033 36.623 38.8567 36.6696C38.7869 36.7394 38.7404 36.8092 38.6706 36.879C38.624 36.9255 38.5775 36.9953 38.531 37.0419C38.4612 37.1117 38.3914 37.1815 38.3216 37.2745C38.275 37.3211 38.2285 37.3676 38.182 37.4141C38.0889 37.5072 37.9958 37.6235 37.8795 37.7166C37.8562 37.7399 37.8562 37.7399 37.8329 37.7631C33.8077 41.7652 28.4794 43.9523 22.8021 43.9523H22.7789C22.5927 43.9523 22.4066 43.9523 22.2205 43.9523C22.2205 43.9523 22.2205 43.9523 22.1972 43.9523C16.7293 43.8127 11.6105 41.6023 7.72481 37.7166C3.97874 33.9705 1.81486 29.0844 1.53565 23.8492C1.53565 23.8259 1.53565 23.8259 1.53565 23.8026C1.53565 23.663 1.53565 23.5234 1.51239 23.3606C1.51239 23.314 1.51239 23.2908 1.51239 23.2442C1.51239 23.1046 1.51239 22.9418 1.51239 22.8021C1.51239 22.7789 1.51239 22.7323 1.51239 22.7091C1.51239 17.0551 3.74607 11.7268 7.77135 7.72481C7.88769 7.60847 8.00402 7.49214 8.12036 7.3758C8.1669 7.32926 8.19016 7.30599 8.2367 7.28272C8.32977 7.21292 8.39957 7.11985 8.49264 7.05005C8.53917 7.00351 8.5857 6.98025 8.63223 6.93371C8.7253 6.86391 8.79511 6.79411 8.86491 6.72431C8.91144 6.67778 8.95798 6.65451 8.98125 6.60797C9.07432 6.5149 9.1674 6.44509 9.28374 6.35202C9.307 6.32876 9.33027 6.30549 9.35354 6.28222C9.46987 6.18915 9.60947 6.07282 9.72581 5.97975C9.77234 5.95648 9.79561 5.90994 9.84215 5.88667C9.93522 5.81687 10.005 5.74707 10.0981 5.70054C10.1446 5.654 10.1912 5.63073 10.261 5.5842C10.3308 5.53766 10.4238 5.46786 10.4936 5.42132C10.5402 5.37479 10.61 5.35152 10.6565 5.30499C10.7496 5.25845 10.8194 5.18865 10.9125 5.11885C10.959 5.09558 11.0055 5.04904 11.0521 5.02577C11.1684 4.9327 11.308 4.86291 11.4243 4.76984C11.4709 4.74657 11.5174 4.70003 11.5639 4.67676C11.657 4.63023 11.7268 4.56043 11.8199 4.5139C11.8897 4.46736 11.9362 4.4441 12.006 4.39756C12.0758 4.35103 12.1689 4.30448 12.2387 4.25795C12.3085 4.23468 12.355 4.18815 12.4248 4.14161C12.4946 4.09508 12.5877 4.04855 12.6575 4.00201C12.7273 3.97874 12.7739 3.9322 12.8437 3.90894C12.8437 3.90894 12.8669 3.90894 12.8669 3.88567C12.96 3.83914 13.0763 3.76933 13.1694 3.7228C13.3555 3.62973 13.5184 3.53666 13.7046 3.46686C12.7971 5.86341 12.3085 8.46937 12.3085 11.1684C12.3085 14.007 12.8437 16.7526 13.8209 19.2422L14.9145 18.6373L25.2918 12.96C26.5715 12.1922 27.4556 11.7035 28.7819 11.7035C31.8067 11.7035 34.2498 14.1466 34.2498 17.1714C34.2498 18.4279 33.7844 19.4051 33.0864 20.5219L27.3393 30.7829L26.7809 31.7601C28.3863 32.3651 30.0616 32.7606 31.7601 32.9933C31.7834 32.9933 31.8299 32.9933 31.8532 32.9933C31.9928 33.0166 32.1091 33.0166 32.2487 33.0398C32.2953 33.0398 32.3651 33.0631 32.4116 33.0631C32.528 33.0631 32.6443 33.0864 32.7374 33.0864C32.7839 33.0864 32.8304 33.0864 32.877 33.1096C33.3423 33.1329 33.8077 33.1562 34.2963 33.1562H34.3196C34.4824 33.1562 34.6686 33.1562 34.8314 33.1562C34.9012 33.1562 34.9478 33.1562 35.0176 33.1562C35.1339 33.1562 35.2503 33.1562 35.3666 33.1329C35.4364 33.1329 35.5062 33.1329 35.576 33.1329C35.6923 33.1329 35.7854 33.1329 35.9017 33.1096C35.9715 33.1096 36.0646 33.1096 36.1344 33.0864C36.2275 33.0864 36.3438 33.0631 36.4369 33.0631C36.5067 33.0631 36.5998 33.0398 36.6696 33.0398C36.7626 33.0398 36.879 33.0166 36.9721 32.9933C37.0419 32.9933 37.1117 32.97 37.2047 32.97C37.3211 32.9468 37.4374 32.9468 37.5305 32.9235C37.6003 32.9235 37.6468 32.9002 37.7166 32.9002C37.8795 32.877 38.0424 32.8537 38.2052 32.8072C38.275 32.8072 38.3448 32.7839 38.4146 32.7606C38.5077 32.7374 38.624 32.7141 38.7171 32.7141C38.7869 32.6908 38.88 32.6676 38.9498 32.6676C39.0429 32.6443 39.1359 32.621 39.2057 32.621C39.2988 32.5978 39.3686 32.5745 39.4617 32.5745C39.5547 32.5512 39.6245 32.528 39.7176 32.5047C39.8107 32.4814 39.8805 32.4582 39.9736 32.4349C40.0434 32.4116 40.1364 32.3883 40.2062 32.3651C40.2993 32.3418 40.3691 32.3186 40.4622 32.2953C40.5552 32.272 40.625 32.2487 40.6949 32.2255C40.7879 32.2022 40.8577 32.1789 40.9508 32.1557C41.0439 32.1324 41.1137 32.1091 41.1835 32.0859C41.3463 32.0393 41.4859 31.9695 41.6488 31.923C41.7186 31.8997 41.7884 31.8765 41.8582 31.8532C41.9978 32.0161 41.9746 32.0626 41.9513 32.1324Z" fill="black"/>
<path d="M25.4314 31.4112C25.4081 31.4112 25.4081 31.388 25.3848 31.388L22.5229 36.4835L23.8725 37.2281L26.8274 31.9697L26.8507 31.9231C26.525 31.8068 26.1992 31.6904 25.8967 31.5508C25.7339 31.481 25.571 31.4112 25.4314 31.3414L25.4081 31.4112C25.3849 31.4112 25.4081 31.4112 25.4314 31.4112Z" fill="black"/>
<path d="M16.4499 24.1284L13.0063 26.7576L14.0301 27.9908L17.4272 25.3616C17.3574 25.2918 17.2876 25.1987 17.2178 25.1289C16.9385 24.7799 16.6593 24.4309 16.4499 24.1284Z" fill="black"/>
<path d="M15.3101 34.7382L16.4967 35.7387L21.825 29.41C21.7784 29.3867 21.7784 29.3867 21.825 29.41L21.8715 29.3634C21.4527 29.061 21.0339 28.7585 20.615 28.4327L20.5918 28.456L15.3101 34.7382Z" fill="black"/>
<path d="M5.25854 24.0818L6.00311 25.4313L14.3561 20.8476L14.4725 20.7778C14.2398 20.3125 14.0537 19.8471 13.8443 19.3585L13.7047 19.4283L5.25854 24.0818Z" fill="black"/>
</svg>
