<svg width="50" height="50" viewBox="0 0 50 50" fill="none" xmlns="http://www.w3.org/2000/svg">
<g clip-path="url(#clip0_949_2277)">
<path d="M25 0C18.3711 0 12.0078 2.63555 7.32422 7.32227C2.63579 12.0108 0.00129871 18.3695 0 25C0 31.6277 2.63672 37.991 7.32422 42.6777C12.0078 47.3645 18.3711 50 25 50C31.6289 50 37.9922 47.3645 42.6758 42.6777C47.3633 37.991 50 31.6277 50 25C50 18.3723 47.3633 12.009 42.6758 7.32227C37.9922 2.63555 31.6289 0 25 0Z" fill="url(#paint0_linear_949_2277)"/>
<path d="M11.3164 24.7358C18.6054 21.5608 23.4648 19.4675 25.8945 18.4562C32.8398 15.5683 34.2812 15.0667 35.2226 15.0497C35.4297 15.0464 35.8906 15.0976 36.1914 15.3407C36.4414 15.5458 36.5117 15.8231 36.5468 16.0179C36.5781 16.2124 36.6211 16.6558 36.5859 17.0019C36.2109 20.955 34.582 30.548 33.7539 34.9757C33.4062 36.8491 32.7148 37.4772 32.0469 37.5386C30.5937 37.6722 29.4922 36.5792 28.0859 35.6577C25.8867 34.2151 24.6445 33.3175 22.5078 31.9101C20.039 30.2835 21.6406 29.3894 23.0469 27.9284C23.414 27.546 29.8125 21.7276 29.9336 21.1999C29.9492 21.1339 29.9648 20.8878 29.8164 20.7581C29.6719 20.628 29.457 20.6726 29.3008 20.7077C29.0781 20.7577 25.5664 23.0812 18.7539 27.6776C17.7578 28.3628 16.8554 28.6968 16.0429 28.6792C15.1523 28.6601 13.4336 28.1745 12.1562 27.7597C10.5937 27.2507 9.34763 26.9815 9.45701 26.1171C9.51169 25.6671 10.1328 25.2065 11.3164 24.7358Z" fill="white"/>
</g>
<defs>
<linearGradient id="paint0_linear_949_2277" x1="2500" y1="0" x2="2500" y2="5000" gradientUnits="userSpaceOnUse">
<stop stop-color="#2AABEE"/>
<stop offset="1" stop-color="#229ED9"/>
</linearGradient>
<clipPath id="clip0_949_2277">
<rect width="50" height="50" fill="white"/>
</clipPath>
</defs>
</svg>
