<svg width="50" height="50" viewBox="0 0 50 50" fill="none" xmlns="http://www.w3.org/2000/svg">
<g clip-path="url(#clip0_949_2251)">
<mask id="mask0_949_2251" style="mask-type:luminance" maskUnits="userSpaceOnUse" x="0" y="0" width="50" height="50">
<path d="M49.7524 0H0.247498V50H49.7524V0Z" fill="white"/>
</mask>
<g mask="url(#mask0_949_2251)">
<path d="M0.247498 24C0.247498 12.6863 0.247498 7.02945 3.72742 3.51472C7.20735 0 12.8082 0 24.0099 0H25.9901C37.1918 0 42.7926 0 46.2725 3.51472C49.7524 7.02945 49.7524 12.6863 49.7524 24V26C49.7524 37.3137 49.7524 42.9705 46.2725 46.4853C42.7926 50 37.1918 50 25.9901 50H24.0099C12.8082 50 7.20735 50 3.72742 46.4853C0.247498 42.9705 0.247498 37.3137 0.247498 26V24Z" fill="#0077FF"/>
<path d="M26.5883 36.021C15.3053 36.021 8.86973 28.2085 8.60156 15.2085H14.2534C14.439 24.7501 18.6056 28.7918 21.9059 29.6251V15.2085H27.2279V23.4376C30.487 23.0834 33.9106 19.3335 35.0658 15.2085H40.3877C39.5007 20.2918 35.7879 24.0418 33.1476 25.5834C35.7879 26.8334 40.0166 30.1043 41.6255 36.021H35.7673C34.509 32.0626 31.3739 29.0001 27.2279 28.5834V36.021H26.5883Z" fill="white"/>
</g>
</g>
<defs>
<clipPath id="clip0_949_2251">
<rect width="50" height="50" fill="white"/>
</clipPath>
</defs>
</svg>
